<svg version="1.1" viewBox="0.0 0.0 775.9737532808399 176.11023622047244" fill="none" stroke="none" stroke-linecap="square" stroke-miterlimit="10" xmlns:xlink="http://www.w3.org/1999/xlink" xmlns="http://www.w3.org/2000/svg"><clipPath id="p.0"><path d="m0 0l775.97375 0l0 176.11023l-775.97375 0l0 -176.11023z" clip-rule="nonzero"/></clipPath><g clip-path="url(#p.0)"><path fill="#000000" fill-opacity="0.0" d="m0 0l775.97375 0l0 176.11023l-775.97375 0z" fill-rule="evenodd"/><path shape-rendering="crispEdges" fill="#efefef" d="m14.317585 69.67191l40.194225 0l0 41.196854l-40.194225 0l0 -41.196854z" fill-rule="nonzero"/><path shape-rendering="crispEdges" fill="#efefef" d="m54.51181 69.67191l40.19423 0l0 41.196854l-40.19423 0l0 -41.196854z" fill-rule="nonzero"/><path shape-rendering="crispEdges" fill="#efefef" d="m94.70604 69.67191l40.19423 0l0 41.196854l-40.19423 0l0 -41.196854z" fill-rule="nonzero"/><path shape-rendering="crispEdges" fill="#efefef" d="m134.90027 69.67191l40.194214 0l0 41.196854l-40.194214 0l0 -41.196854z" fill-rule="nonzero"/><path shape-rendering="crispEdges" fill="#efefef" d="m175.09448 69.67191l40.19423 0l0 41.196854l-40.19423 0l0 -41.196854z" fill-rule="nonzero"/><path shape-rendering="crispEdges" fill="#efefef" d="m215.28871 69.67191l40.19423 0l0 41.196854l-40.19423 0l0 -41.196854z" fill-rule="nonzero"/><path shape-rendering="crispEdges" fill="#efefef" d="m255.48294 69.67191l40.194214 0l0 41.196854l-40.194214 0l0 -41.196854z" fill-rule="nonzero"/><path shape-rendering="crispEdges" fill="#efefef" d="m295.67715 69.67191l40.194244 0l0 41.196854l-40.194244 0l0 -41.196854z" fill-rule="nonzero"/><path stroke="#434343" stroke-width="3.0" stroke-linecap="butt" d="m14.317585 68.173225l0 44.19423" fill-rule="nonzero"/><path stroke="#434343" stroke-width="3.0" stroke-linecap="butt" d="m54.51181 68.173225l0 44.19423" fill-rule="nonzero"/><path stroke="#434343" stroke-width="3.0" stroke-linecap="butt" d="m94.70604 68.173225l0 44.19423" fill-rule="nonzero"/><path stroke="#434343" stroke-width="3.0" stroke-linecap="butt" d="m134.90027 68.173225l0 44.19423" fill-rule="nonzero"/><path stroke="#434343" stroke-width="3.0" stroke-linecap="butt" d="m175.09448 68.173225l0 44.19423" fill-rule="nonzero"/><path stroke="#434343" stroke-width="3.0" stroke-linecap="butt" d="m215.28871 68.173225l0 44.19423" fill-rule="nonzero"/><path stroke="#434343" stroke-width="3.0" stroke-linecap="butt" d="m255.48294 68.173225l0 44.19423" fill-rule="nonzero"/><path stroke="#434343" stroke-width="3.0" stroke-linecap="butt" d="m295.67715 68.173225l0 44.19423" fill-rule="nonzero"/><path stroke="#434343" stroke-width="3.0" stroke-linecap="butt" d="m335.8714 68.173225l0 44.19423" fill-rule="nonzero"/><path stroke="#434343" stroke-width="3.0" stroke-linecap="butt" d="m12.818897 69.67191l324.55118 0" fill-rule="nonzero"/><path stroke="#434343" stroke-width="3.0" stroke-linecap="butt" d="m12.818897 110.86877l324.55118 0" fill-rule="nonzero"/><path fill="#000000" fill-opacity="0.0" d="m60.81647 32.475067l-26.330711 0l0 30.960629" fill-rule="evenodd"/><path stroke="#434343" stroke-width="3.0" stroke-linejoin="round" stroke-linecap="butt" d="m60.816467 32.475067l-26.330704 0l0 12.9606285" fill-rule="evenodd"/><path fill="#434343" stroke="#434343" stroke-width="3.0" stroke-linecap="butt" d="m29.530565 45.435696l4.9551983 13.614292l4.9551964 -13.614292z" fill-rule="evenodd"/><path shape-rendering="crispEdges" fill="#efefef" d="m438.3176 69.67191l40.194214 0l0 41.196854l-40.194214 0l0 -41.196854z" fill-rule="nonzero"/><path shape-rendering="crispEdges" fill="#efefef" d="m478.5118 69.67191l40.194244 0l0 41.196854l-40.194244 0l0 -41.196854z" fill-rule="nonzero"/><path shape-rendering="crispEdges" fill="#efefef" d="m518.70605 69.67191l40.194214 0l0 41.196854l-40.194214 0l0 -41.196854z" fill-rule="nonzero"/><path shape-rendering="crispEdges" fill="#efefef" d="m558.90027 69.67191l40.194214 0l0 41.196854l-40.194214 0l0 -41.196854z" fill-rule="nonzero"/><path shape-rendering="crispEdges" fill="#efefef" d="m599.0945 69.67191l40.194214 0l0 41.196854l-40.194214 0l0 -41.196854z" fill-rule="nonzero"/><path shape-rendering="crispEdges" fill="#efefef" d="m639.2887 69.67191l40.194214 0l0 41.196854l-40.194214 0l0 -41.196854z" fill-rule="nonzero"/><path shape-rendering="crispEdges" fill="#efefef" d="m679.4829 69.67191l40.194275 0l0 41.196854l-40.194275 0l0 -41.196854z" fill-rule="nonzero"/><path shape-rendering="crispEdges" fill="#efefef" d="m719.6772 69.67191l40.194214 0l0 41.196854l-40.194214 0l0 -41.196854z" fill-rule="nonzero"/><path stroke="#434343" stroke-width="3.0" stroke-linecap="butt" d="m438.3176 68.173225l0 44.19423" fill-rule="nonzero"/><path stroke="#434343" stroke-width="3.0" stroke-linecap="butt" d="m478.5118 68.173225l0 44.19423" fill-rule="nonzero"/><path stroke="#434343" stroke-width="3.0" stroke-linecap="butt" d="m518.70605 68.173225l0 44.19423" fill-rule="nonzero"/><path stroke="#434343" stroke-width="3.0" stroke-linecap="butt" d="m558.90027 68.173225l0 44.19423" fill-rule="nonzero"/><path stroke="#434343" stroke-width="3.0" stroke-linecap="butt" d="m599.0945 68.173225l0 44.19423" fill-rule="nonzero"/><path stroke="#434343" stroke-width="3.0" stroke-linecap="butt" d="m639.2887 68.173225l0 44.19423" fill-rule="nonzero"/><path stroke="#434343" stroke-width="3.0" stroke-linecap="butt" d="m679.4829 68.173225l0 44.19423" fill-rule="nonzero"/><path stroke="#434343" stroke-width="3.0" stroke-linecap="butt" d="m719.6772 68.173225l0 44.19423" fill-rule="nonzero"/><path stroke="#434343" stroke-width="3.0" stroke-linecap="butt" d="m759.8714 68.173225l0 44.19423" fill-rule="nonzero"/><path stroke="#434343" stroke-width="3.0" stroke-linecap="butt" d="m436.8189 69.67191l324.55115 0" fill-rule="nonzero"/><path stroke="#434343" stroke-width="3.0" stroke-linecap="butt" d="m436.8189 110.86877l324.55115 0" fill-rule="nonzero"/><path fill="#000000" fill-opacity="0.0" d="m358.97113 92.3937l63.46457 0" fill-rule="evenodd"/><path stroke="#000000" stroke-width="4.0" stroke-linejoin="round" stroke-linecap="butt" stroke-dasharray="4.0,12.0" d="m358.97113 92.3937l63.46457 0" fill-rule="evenodd"/><path fill="#000000" fill-opacity="0.0" d="m85.91338 118.973755l178.36221 0l0 41.606293l-178.36221 0z" fill-rule="evenodd"/><path fill="#000000" d="m142.23628 143.33376l0 -11.359375l7.453125 0l0 0.984375l-6.328125 0l0 4.1875l5.34375 0l0 0.921875l-5.34375 0l0 5.265625l-1.125 0zm9.2052765 0l0 -8.34375l1.078125 0l0 8.34375l-1.078125 0zm0 -10.078125l0 -1.609375l1.078125 0l0 1.609375l-1.078125 0zm7.6442566 2.703125q-1.09375 0.03125 -1.921875 0.609375q-0.8125 0.578125 -1.15625 1.578125l0 5.1875l-1.078125 0l0 -8.34375l1.015625 0l0 2.0q0.4375 -0.875 1.140625 -1.40625q0.71875 -0.546875 1.515625 -0.625q0.171875 -0.015625 0.28125 -0.015625q0.125 0 0.203125 0.015625l0 1.0zm4.1941376 7.53125q-1.03125 0 -1.90625 -0.328125q-0.875 -0.34375 -1.515625 -1.03125l0.4375 -0.765625q0.703125 0.65625 1.421875 0.953125q0.71875 0.296875 1.515625 0.296875q0.96875 0 1.578125 -0.390625q0.609375 -0.390625 0.609375 -1.125q0 -0.5 -0.296875 -0.765625q-0.296875 -0.265625 -0.84375 -0.421875q-0.546875 -0.171875 -1.328125 -0.375q-0.859375 -0.234375 -1.453125 -0.5q-0.578125 -0.265625 -0.875 -0.671875q-0.296875 -0.40625 -0.296875 -1.0625q0 -0.8125 0.40625 -1.34375q0.421875 -0.546875 1.125 -0.828125q0.71875 -0.28125 1.59375 -0.28125q0.96875 0 1.703125 0.3125q0.734375 0.296875 1.203125 0.84375l-0.53125 0.734375q-0.453125 -0.515625 -1.078125 -0.75q-0.609375 -0.25 -1.359375 -0.25q-0.515625 0 -0.984375 0.140625q-0.453125 0.125 -0.75 0.4375q-0.296875 0.3125 -0.296875 0.859375q0 0.4375 0.21875 0.6875q0.234375 0.25 0.671875 0.421875q0.453125 0.171875 1.109375 0.359375q0.9375 0.25 1.640625 0.515625q0.71875 0.265625 1.09375 0.6875q0.390625 0.40625 0.390625 1.171875q0 1.15625 -0.890625 1.8125q-0.875 0.65625 -2.3125 0.65625zm8.993637 -0.5625q-0.125 0.046875 -0.40625 0.1875q-0.265625 0.125 -0.65625 0.21875q-0.375 0.09375 -0.828125 0.09375q-0.46875 0 -0.875 -0.171875q-0.40625 -0.171875 -0.65625 -0.53125q-0.234375 -0.359375 -0.234375 -0.890625l0 -5.96875l-1.140625 0l0 -0.875l1.140625 0l0 -2.8125l1.09375 0l0 2.8125l1.921875 0l0 0.875l-1.921875 0l0 5.65625q0.03125 0.453125 0.328125 0.6875q0.296875 0.21875 0.671875 0.21875q0.453125 0 0.8125 -0.15625q0.375 -0.15625 0.453125 -0.21875l0.296875 0.875zm9.518143 0.5625q-0.984375 0 -1.8125 -0.5q-0.828125 -0.5 -1.296875 -1.265625l0 1.609375l-0.96875 0l0 -11.6875l1.078125 0l0 5.09375q0.5625 -0.84375 1.34375 -1.359375q0.796875 -0.53125 1.828125 -0.53125q0.890625 0 1.578125 0.375q0.703125 0.359375 1.1875 0.984375q0.5 0.609375 0.75 1.390625q0.265625 0.78125 0.265625 1.59375q0 0.875 -0.296875 1.640625q-0.296875 0.765625 -0.84375 1.375q-0.546875 0.59375 -1.265625 0.9375q-0.703125 0.34375 -1.546875 0.34375zm-0.25 -0.953125q0.671875 0 1.234375 -0.265625q0.578125 -0.28125 1.0 -0.75q0.421875 -0.484375 0.640625 -1.078125q0.21875 -0.609375 0.21875 -1.25q0 -0.890625 -0.375 -1.65625q-0.375 -0.78125 -1.046875 -1.25q-0.65625 -0.46875 -1.546875 -0.46875q-0.640625 0 -1.203125 0.296875q-0.546875 0.28125 -0.96875 0.75q-0.421875 0.46875 -0.703125 1.03125l0 2.59375q0.078125 0.421875 0.34375 0.8125q0.265625 0.375 0.671875 0.640625q0.421875 0.265625 0.859375 0.4375q0.453125 0.15625 0.875 0.15625zm6.24028 3.359375q0.21875 0.015625 0.421875 0.015625q0.203125 0.015625 0.3125 -0.015625q0.1875 -0.03125 0.359375 -0.234375q0.171875 -0.1875 0.40625 -0.734375q0.25 -0.53125 0.6875 -1.59375l-3.640625 -8.34375l1.15625 0l3.0625 7.21875l2.8125 -7.21875l1.09375 0l-4.328125 10.765625q-0.109375 0.296875 -0.34375 0.5625q-0.21875 0.265625 -0.546875 0.40625q-0.328125 0.15625 -0.796875 0.171875q-0.15625 0.015625 -0.3125 0q-0.140625 0 -0.34375 -0.03125l0 -0.96875zm12.187637 -2.96875q-0.125 0.046875 -0.40625 0.1875q-0.265625 0.125 -0.65625 0.21875q-0.375 0.09375 -0.828125 0.09375q-0.46875 0 -0.875 -0.171875q-0.40625 -0.171875 -0.65625 -0.53125q-0.234375 -0.359375 -0.234375 -0.890625l0 -5.96875l-1.140625 0l0 -0.875l1.140625 0l0 -2.8125l1.09375 0l0 2.8125l1.921875 0l0 0.875l-1.921875 0l0 5.65625q0.03125 0.453125 0.328125 0.6875q0.296875 0.21875 0.671875 0.21875q0.453125 0 0.8125 -0.15625q0.375 -0.15625 0.453125 -0.21875l0.296875 0.875zm4.8097687 0.5625q-0.890625 0 -1.65625 -0.34375q-0.765625 -0.34375 -1.328125 -0.9375q-0.5625 -0.609375 -0.875 -1.390625q-0.3125 -0.78125 -0.3125 -1.671875q0 -1.171875 0.53125 -2.140625q0.546875 -0.984375 1.484375 -1.5625q0.9375 -0.59375 2.140625 -0.59375q1.234375 0 2.15625 0.59375q0.921875 0.59375 1.4375 1.5625q0.53125 0.96875 0.53125 2.125q0 0.125 0 0.25q0 0.109375 -0.015625 0.171875l-7.125 0q0.078125 0.90625 0.5 1.609375q0.421875 0.6875 1.09375 1.09375q0.6875 0.40625 1.484375 0.40625q0.8125 0 1.546875 -0.40625q0.734375 -0.421875 1.015625 -1.09375l0.953125 0.25q-0.265625 0.59375 -0.796875 1.078125q-0.515625 0.46875 -1.234375 0.734375q-0.71875 0.265625 -1.53125 0.265625zm-3.0625 -4.71875l6.15625 0q-0.0625 -0.90625 -0.5 -1.59375q-0.421875 -0.6875 -1.109375 -1.078125q-0.671875 -0.390625 -1.484375 -0.390625q-0.8125 0 -1.484375 0.390625q-0.671875 0.390625 -1.09375 1.09375q-0.421875 0.6875 -0.484375 1.578125z" fill-rule="nonzero"/><path fill="#000000" fill-opacity="0.0" d="m509.9134 118.973755l178.36218 0l0 41.606293l-178.36218 0z" fill-rule="evenodd"/><path fill="#000000" d="m566.4763 143.33376l0 -11.359375l1.125 0l0 10.375l6.5625 0l0 0.984375l-7.6875 0zm8.437378 -2.40625q0 -0.78125 0.4375 -1.34375q0.453125 -0.5625 1.25 -0.875q0.796875 -0.3125 1.828125 -0.3125q0.609375 0 1.265625 0.09375q0.65625 0.09375 1.171875 0.28125l0 -0.703125q0 -1.046875 -0.625 -1.671875q-0.625 -0.625 -1.734375 -0.625q-0.671875 0 -1.328125 0.25q-0.640625 0.234375 -1.34375 0.71875l-0.40625 -0.765625q0.8125 -0.5625 1.59375 -0.84375q0.78125 -0.28125 1.59375 -0.28125q1.546875 0 2.4375 0.890625q0.890625 0.875 0.890625 2.421875l0 3.859375q0 0.21875 0.09375 0.328125q0.109375 0.109375 0.3125 0.125l0 0.859375q-0.171875 0.015625 -0.3125 0.03125q-0.125 0.015625 -0.1875 0q-0.390625 -0.015625 -0.609375 -0.25q-0.203125 -0.25 -0.21875 -0.515625l-0.015625 -0.609375q-0.5625 0.71875 -1.46875 1.109375q-0.890625 0.390625 -1.8125 0.390625q-0.796875 0 -1.453125 -0.34375q-0.640625 -0.34375 -1.0 -0.921875q-0.359375 -0.59375 -0.359375 -1.296875zm5.578125 0.640625q0.171875 -0.21875 0.265625 -0.421875q0.109375 -0.21875 0.109375 -0.375l0 -1.21875q-0.546875 -0.203125 -1.140625 -0.3125q-0.578125 -0.109375 -1.171875 -0.109375q-1.15625 0 -1.890625 0.46875q-0.71875 0.453125 -0.71875 1.25q0 0.46875 0.234375 0.875q0.25 0.40625 0.703125 0.671875q0.46875 0.265625 1.09375 0.265625q0.796875 0 1.46875 -0.296875q0.6875 -0.3125 1.046875 -0.796875zm6.5481567 1.921875q-1.03125 0 -1.90625 -0.328125q-0.875 -0.34375 -1.515625 -1.03125l0.4375 -0.765625q0.703125 0.65625 1.421875 0.953125q0.71875 0.296875 1.515625 0.296875q0.96875 0 1.578125 -0.390625q0.609375 -0.390625 0.609375 -1.125q0 -0.5 -0.296875 -0.765625q-0.296875 -0.265625 -0.84375 -0.421875q-0.546875 -0.171875 -1.328125 -0.375q-0.859375 -0.234375 -1.453125 -0.5q-0.578125 -0.265625 -0.875 -0.671875q-0.296875 -0.40625 -0.296875 -1.0625q0 -0.8125 0.40625 -1.34375q0.421875 -0.546875 1.125 -0.828125q0.71875 -0.28125 1.59375 -0.28125q0.96875 0 1.703125 0.3125q0.734375 0.296875 1.203125 0.84375l-0.53125 0.734375q-0.453125 -0.515625 -1.078125 -0.75q-0.609375 -0.25 -1.359375 -0.25q-0.515625 0 -0.984375 0.140625q-0.453125 0.125 -0.75 0.4375q-0.296875 0.3125 -0.296875 0.859375q0 0.4375 0.21875 0.6875q0.234375 0.25 0.671875 0.421875q0.453125 0.171875 1.109375 0.359375q0.9375 0.25 1.640625 0.515625q0.71875 0.265625 1.09375 0.6875q0.390625 0.40625 0.390625 1.171875q0 1.15625 -0.890625 1.8125q-0.875 0.65625 -2.3125 0.65625zm8.993591 -0.5625q-0.125 0.046875 -0.40625 0.1875q-0.265625 0.125 -0.65625 0.21875q-0.375 0.09375 -0.828125 0.09375q-0.46875 0 -0.875 -0.171875q-0.40625 -0.171875 -0.65625 -0.53125q-0.234375 -0.359375 -0.234375 -0.890625l0 -5.96875l-1.140625 0l0 -0.875l1.140625 0l0 -2.8125l1.09375 0l0 2.8125l1.921875 0l0 0.875l-1.921875 0l0 5.65625q0.03125 0.453125 0.328125 0.6875q0.296875 0.21875 0.671875 0.21875q0.453125 0 0.8125 -0.15625q0.375 -0.15625 0.453125 -0.21875l0.296875 0.875zm9.518188 0.5625q-0.984375 0 -1.8125 -0.5q-0.828125 -0.5 -1.296875 -1.265625l0 1.609375l-0.96875 0l0 -11.6875l1.078125 0l0 5.09375q0.5625 -0.84375 1.34375 -1.359375q0.796875 -0.53125 1.828125 -0.53125q0.890625 0 1.578125 0.375q0.703125 0.359375 1.1875 0.984375q0.5 0.609375 0.75 1.390625q0.265625 0.78125 0.265625 1.59375q0 0.875 -0.296875 1.640625q-0.296875 0.765625 -0.84375 1.375q-0.546875 0.59375 -1.265625 0.9375q-0.703125 0.34375 -1.546875 0.34375zm-0.25 -0.953125q0.671875 0 1.234375 -0.265625q0.578125 -0.28125 1.0 -0.75q0.421875 -0.484375 0.640625 -1.078125q0.21875 -0.609375 0.21875 -1.25q0 -0.890625 -0.375 -1.65625q-0.375 -0.78125 -1.046875 -1.25q-0.65625 -0.46875 -1.546875 -0.46875q-0.640625 0 -1.203125 0.296875q-0.546875 0.28125 -0.96875 0.75q-0.421875 0.46875 -0.703125 1.03125l0 2.59375q0.078125 0.421875 0.34375 0.8125q0.265625 0.375 0.671875 0.640625q0.421875 0.265625 0.859375 0.4375q0.453125 0.15625 0.875 0.15625zm6.2402344 3.359375q0.21875 0.015625 0.421875 0.015625q0.203125 0.015625 0.3125 -0.015625q0.1875 -0.03125 0.359375 -0.234375q0.171875 -0.1875 0.40625 -0.734375q0.25 -0.53125 0.6875 -1.59375l-3.640625 -8.34375l1.15625 0l3.0625 7.21875l2.8125 -7.21875l1.09375 0l-4.328125 10.765625q-0.109375 0.296875 -0.34375 0.5625q-0.21875 0.265625 -0.546875 0.40625q-0.328125 0.15625 -0.796875 0.171875q-0.15625 0.015625 -0.3125 0q-0.140625 0 -0.34375 -0.03125l0 -0.96875zm12.187683 -2.96875q-0.125 0.046875 -0.40625 0.1875q-0.265625 0.125 -0.65625 0.21875q-0.375 0.09375 -0.828125 0.09375q-0.46875 0 -0.875 -0.171875q-0.40625 -0.171875 -0.65625 -0.53125q-0.234375 -0.359375 -0.234375 -0.890625l0 -5.96875l-1.140625 0l0 -0.875l1.140625 0l0 -2.8125l1.09375 0l0 2.8125l1.921875 0l0 0.875l-1.921875 0l0 5.65625q0.03125 0.453125 0.328125 0.6875q0.296875 0.21875 0.671875 0.21875q0.453125 0 0.8125 -0.15625q0.375 -0.15625 0.453125 -0.21875l0.296875 0.875zm4.8097534 0.5625q-0.890625 0 -1.65625 -0.34375q-0.765625 -0.34375 -1.328125 -0.9375q-0.5625 -0.609375 -0.875 -1.390625q-0.3125 -0.78125 -0.3125 -1.671875q0 -1.171875 0.53125 -2.140625q0.546875 -0.984375 1.484375 -1.5625q0.9375 -0.59375 2.140625 -0.59375q1.234375 0 2.15625 0.59375q0.921875 0.59375 1.4375 1.5625q0.53125 0.96875 0.53125 2.125q0 0.125 0 0.25q0 0.109375 -0.015625 0.171875l-7.125 0q0.078125 0.90625 0.5 1.609375q0.421875 0.6875 1.09375 1.09375q0.6875 0.40625 1.484375 0.40625q0.8125 0 1.546875 -0.40625q0.734375 -0.421875 1.015625 -1.09375l0.953125 0.25q-0.265625 0.59375 -0.796875 1.078125q-0.515625 0.46875 -1.234375 0.734375q-0.71875 0.265625 -1.53125 0.265625zm-3.0625 -4.71875l6.15625 0q-0.0625 -0.90625 -0.5 -1.59375q-0.421875 -0.6875 -1.109375 -1.078125q-0.671875 -0.390625 -1.484375 -0.390625q-0.8125 0 -1.484375 0.390625q-0.671875 0.390625 -1.09375 1.09375q-0.421875 0.6875 -0.484375 1.578125z" fill-rule="nonzero"/><path fill="#000000" fill-opacity="0.0" d="m60.81647 16.1916l93.5748 0l0 32.56693l-93.5748 0z" fill-rule="evenodd"/><path fill="#000000" d="m80.51018 38.335064l0 -8.34375l1.078125 0l0 8.34375l-1.078125 0zm0 -10.078125l0 -1.609375l1.078125 0l0 1.609375l-1.078125 0zm10.488007 10.078125l-1.078125 0l0 -4.65625q0 -1.46875 -0.4375 -2.140625q-0.4375 -0.6875 -1.359375 -0.6875q-0.640625 0 -1.265625 0.3125q-0.625 0.3125 -1.09375 0.84375q-0.46875 0.53125 -0.6875 1.21875l0 5.109375l-1.078125 0l0 -8.34375l0.984375 0l0 1.890625q0.34375 -0.609375 0.875 -1.0625q0.546875 -0.453125 1.234375 -0.703125q0.6875 -0.265625 1.4375 -0.265625q0.6875 0 1.15625 0.265625q0.484375 0.25 0.765625 0.71875q0.296875 0.46875 0.421875 1.140625q0.125 0.65625 0.125 1.484375l0 4.875zm1.7655182 -4.140625q0 -1.1875 0.484375 -2.171875q0.484375 -0.984375 1.34375 -1.578125q0.875 -0.59375 1.984375 -0.59375q1.03125 0 1.859375 0.5625q0.828125 0.546875 1.28125 1.328125l0 -5.09375l1.09375 0l0 10.375q0 0.21875 0.09375 0.328125q0.09375 0.109375 0.296875 0.125l0 0.859375q-0.328125 0.046875 -0.5 0.03125q-0.34375 -0.015625 -0.59375 -0.265625q-0.25 -0.265625 -0.25 -0.5625l0 -0.8125q-0.5 0.8125 -1.359375 1.296875q-0.84375 0.46875 -1.75 0.46875q-0.859375 0 -1.59375 -0.34375q-0.734375 -0.359375 -1.265625 -0.96875q-0.53125 -0.609375 -0.828125 -1.375q-0.296875 -0.78125 -0.296875 -1.609375zm6.953125 1.28125l0 -2.578125q-0.203125 -0.578125 -0.671875 -1.046875q-0.453125 -0.46875 -1.046875 -0.75q-0.578125 -0.28125 -1.15625 -0.28125q-0.671875 0 -1.21875 0.28125q-0.546875 0.28125 -0.9375 0.765625q-0.390625 0.46875 -0.59375 1.078125q-0.203125 0.609375 -0.203125 1.25q0 0.671875 0.21875 1.28125q0.234375 0.609375 0.671875 1.078125q0.4375 0.46875 0.984375 0.734375q0.5625 0.25 1.21875 0.25q0.421875 0 0.859375 -0.15625q0.453125 -0.171875 0.859375 -0.453125q0.40625 -0.28125 0.671875 -0.65625q0.28125 -0.390625 0.34375 -0.796875zm7.1551514 3.015625q-0.890625 0 -1.65625 -0.34375q-0.765625 -0.34375 -1.328125 -0.9375q-0.5625 -0.609375 -0.875 -1.390625q-0.3125 -0.78125 -0.3125 -1.671875q0 -1.171875 0.53125 -2.140625q0.546875 -0.984375 1.484375 -1.5625q0.9375 -0.59375 2.140625 -0.59375q1.234375 0 2.15625 0.59375q0.921875 0.59375 1.4375 1.5625q0.53125 0.96875 0.53125 2.125q0 0.125 0 0.25q0 0.109375 -0.015625 0.171875l-7.125 0q0.078125 0.90625 0.5 1.609375q0.421875 0.6875 1.09375 1.09375q0.6875 0.40625 1.484375 0.40625q0.8125 0 1.546875 -0.40625q0.734375 -0.421875 1.015625 -1.09375l0.953125 0.25q-0.265625 0.59375 -0.796875 1.078125q-0.515625 0.46875 -1.234375 0.734375q-0.71875 0.265625 -1.53125 0.265625zm-3.0625 -4.71875l6.15625 0q-0.0625 -0.90625 -0.5 -1.59375q-0.421875 -0.6875 -1.109375 -1.078125q-0.671875 -0.390625 -1.484375 -0.390625q-0.8125 0 -1.484375 0.390625q-0.671875 0.390625 -1.09375 1.09375q-0.421875 0.6875 -0.484375 1.578125zm8.790756 -3.78125l2.453125 3.265625l0.125 0.25l0.125 -0.25l2.4375 -3.265625l1.234375 0l-3.171875 4.203125l3.171875 4.140625l-1.234375 0l-2.4375 -3.25l-0.125 -0.21875l-0.125 0.21875l-2.4375 3.25l-1.234375 0l3.15625 -4.140625l-3.15625 -4.203125l1.21875 0zm7.6577606 1.625l0 -1.5625l0.921875 0l0 1.5625l-0.921875 0zm0 6.71875l0 -1.5625l0.921875 0l0 1.5625l-0.921875 0z" fill-rule="nonzero"/><path fill="#000000" d="m134.11163 32.616314l0 1.625q0 2.125 -1.0 3.359375q-0.796875 0.96875 -2.0 0.96875q-0.578125 0 -1.09375 -0.234375q-0.5 -0.234375 -0.859375 -0.640625q-0.234375 -0.265625 -0.5 -0.828125q-0.265625 -0.578125 -0.390625 -1.046875q-0.171875 -0.671875 -0.171875 -1.578125l0 -1.625q0 -2.125 1.0 -3.359375q0.796875 -0.96875 2.0 -0.96875q0.578125 0 1.078125 0.234375q0.515625 0.234375 0.875 0.640625q0.234375 0.265625 0.5 0.84375q0.265625 0.5625 0.390625 1.03125q0.171875 0.671875 0.171875 1.578125zm-0.65625 0.09375q0 -0.9375 -0.265625 -1.734375q-0.25 -0.796875 -0.578125 -1.28125q-0.203125 -0.265625 -0.515625 -0.46875q-0.4375 -0.265625 -1.0 -0.265625q-1.09375 0 -1.71875 1.125q-0.625 1.125 -0.625 2.625l0 1.4375q0 0.9375 0.25 1.75q0.265625 0.796875 0.609375 1.265625q0.1875 0.265625 0.5 0.46875q0.4375 0.28125 1.0 0.28125q1.09375 0 1.71875 -1.125q0.625 -1.140625 0.625 -2.640625l0 -1.4375z" fill-rule="nonzero"/><path fill="#000000" fill-opacity="0.0" d="m712.23883 36.14173l25.480347 0l0 26.01575" fill-rule="evenodd"/><path stroke="#434343" stroke-width="3.0" stroke-linejoin="round" stroke-linecap="butt" d="m712.23883 36.14173l25.480347 0l0 8.015751" fill-rule="evenodd"/><path fill="#434343" stroke="#434343" stroke-width="3.0" stroke-linecap="butt" d="m732.764 44.157482l4.9552 13.614292l4.9552 -13.614292z" fill-rule="evenodd"/><path fill="#000000" fill-opacity="0.0" d="m541.3727 19.858267l170.86615 0l0 32.566933l-170.86615 0z" fill-rule="evenodd"/><path fill="#000000" d="m556.50507 42.00173l0 -8.34375l1.078125 0l0 8.34375l-1.078125 0zm0 -10.078127l0 -1.609375l1.078125 0l0 1.609375l-1.078125 0zm10.487976 10.078127l-1.078125 0l0 -4.65625q0 -1.46875 -0.4375 -2.140625q-0.4375 -0.6875 -1.359375 -0.6875q-0.640625 0 -1.265625 0.3125q-0.625 0.3125 -1.09375 0.84375q-0.46875 0.53125 -0.6875 1.21875l0 5.109375l-1.078125 0l0 -8.34375l0.984375 0l0 1.890625q0.34375 -0.609375 0.875 -1.0625q0.546875 -0.453125 1.234375 -0.703125q0.6875 -0.265625 1.4375 -0.265625q0.6875 0 1.15625 0.265625q0.484375 0.25 0.765625 0.71875q0.296875 0.46875 0.421875 1.140625q0.125 0.65625 0.125 1.484375l0 4.875zm1.7655029 -4.140625q0 -1.1875 0.484375 -2.171875q0.484375 -0.984375 1.34375 -1.578125q0.875 -0.59375 1.984375 -0.59375q1.03125 0 1.859375 0.5625q0.828125 0.546875 1.28125 1.328125l0 -5.093752l1.09375 0l0 10.375002q0 0.21875 0.09375 0.328125q0.09375 0.109375 0.296875 0.125l0 0.859375q-0.328125 0.046875 -0.5 0.03125q-0.34375 -0.015625 -0.59375 -0.265625q-0.25 -0.265625 -0.25 -0.5625l0 -0.8125q-0.5 0.8125 -1.359375 1.296875q-0.84375 0.46875 -1.75 0.46875q-0.859375 0 -1.59375 -0.34375q-0.734375 -0.359375 -1.265625 -0.96875q-0.53125 -0.609375 -0.828125 -1.375q-0.296875 -0.78125 -0.296875 -1.609375zm6.953125 1.28125l0 -2.578125q-0.203125 -0.578125 -0.671875 -1.046875q-0.453125 -0.46875 -1.046875 -0.75q-0.578125 -0.28125 -1.15625 -0.28125q-0.671875 0 -1.21875 0.28125q-0.546875 0.28125 -0.9375 0.765625q-0.390625 0.46875 -0.59375 1.078125q-0.203125 0.609375 -0.203125 1.25q0 0.671875 0.21875 1.28125q0.234375 0.609375 0.671875 1.078125q0.4375 0.46875 0.984375 0.734375q0.5625 0.25 1.21875 0.25q0.421875 0 0.859375 -0.15625q0.453125 -0.171875 0.859375 -0.453125q0.40625 -0.28125 0.671875 -0.65625q0.28125 -0.390625 0.34375 -0.796875zm7.1551514 3.015625q-0.890625 0 -1.65625 -0.34375q-0.765625 -0.34375 -1.328125 -0.9375q-0.5625 -0.609375 -0.875 -1.390625q-0.3125 -0.78125 -0.3125 -1.671875q0 -1.171875 0.53125 -2.140625q0.546875 -0.984375 1.484375 -1.5625q0.9375 -0.59375 2.140625 -0.59375q1.234375 0 2.15625 0.59375q0.921875 0.59375 1.4375 1.5625q0.53125 0.96875 0.53125 2.125q0 0.125 0 0.25q0 0.109375 -0.015625 0.171875l-7.125 0q0.078125 0.90625 0.5 1.609375q0.421875 0.6875 1.09375 1.09375q0.6875 0.40625 1.484375 0.40625q0.8125 0 1.546875 -0.40625q0.734375 -0.421875 1.015625 -1.09375l0.953125 0.25q-0.265625 0.59375 -0.796875 1.078125q-0.515625 0.46875 -1.234375 0.734375q-0.71875 0.265625 -1.53125 0.265625zm-3.0625 -4.71875l6.15625 0q-0.0625 -0.90625 -0.5 -1.59375q-0.421875 -0.6875 -1.109375 -1.078125q-0.671875 -0.390625 -1.484375 -0.390625q-0.8125 0 -1.484375 0.390625q-0.671875 0.390625 -1.09375 1.09375q-0.421875 0.6875 -0.484375 1.578125zm8.7907715 -3.78125l2.453125 3.265625l0.125 0.25l0.125 -0.25l2.4375 -3.265625l1.234375 0l-3.171875 4.203125l3.171875 4.140625l-1.234375 0l-2.4375 -3.25l-0.125 -0.21875l-0.125 0.21875l-2.4375 3.25l-1.234375 0l3.15625 -4.140625l-3.15625 -4.203125l1.21875 0zm7.657776 1.625l0 -1.5625l0.921875 0l0 1.5625l-0.921875 0zm0 6.71875l0 -1.5625l0.921875 0l0 1.5625l-0.921875 0z" fill-rule="nonzero"/><path fill="#000000" d="m607.43463 32.18923l0 9.15625l2.578125 0q0.234375 0 0.328125 0.09375q0.109375 0.078125 0.109375 0.234375q0 0.140625 -0.109375 0.234375q-0.09375 0.09375 -0.328125 0.09375l-5.8125 0q-0.234375 0 -0.34375 -0.09375q-0.09375 -0.09375 -0.09375 -0.234375q0 -0.15625 0.09375 -0.234375q0.109375 -0.09375 0.34375 -0.09375l2.578125 0l0 -8.484375l-1.890625 0q-0.234375 0 -0.34375 -0.09375q-0.109375 -0.09375 -0.109375 -0.25q0 -0.140625 0.09375 -0.234375q0.109375 -0.09375 0.359375 -0.09375l2.546875 0zm12.8203125 6.578125l-6.6875 0q0.171875 1.28125 1.0625 2.0625q0.890625 0.765625 2.21875 0.765625q0.734375 0 1.53125 -0.234375q0.8125 -0.25 1.3125 -0.640625q0.15625 -0.125 0.265625 -0.125q0.125 0 0.21875 0.109375q0.09375 0.09375 0.09375 0.21875q0 0.140625 -0.125 0.265625q-0.375 0.390625 -1.34375 0.734375q-0.953125 0.34375 -1.953125 0.34375q-1.6875 0 -2.828125 -1.109375q-1.125 -1.109375 -1.125 -2.6875q0 -1.421875 1.0625 -2.4375q1.0625 -1.03125 2.625 -1.03125q1.609375 0 2.640625 1.046875q1.046875 1.046875 1.03125 2.71875zm-0.671875 -0.65625q-0.1875 -1.09375 -1.03125 -1.765625q-0.828125 -0.6875 -1.96875 -0.6875q-1.15625 0 -1.984375 0.671875q-0.828125 0.671875 -1.03125 1.78125l6.015625 0zm4.6015625 -2.875l0 0.984375q0.6875 -0.6875 1.234375 -0.953125q0.5625 -0.265625 1.25 -0.265625q0.75 0 1.375 0.3125q0.4375 0.234375 0.78125 0.78125q0.359375 0.546875 0.359375 1.109375l0 4.140625l0.5625 0q0.234375 0 0.328125 0.09375q0.109375 0.078125 0.109375 0.234375q0 0.140625 -0.109375 0.234375q-0.09375 0.09375 -0.328125 0.09375l-1.765625 0q-0.234375 0 -0.34375 -0.09375q-0.09375 -0.09375 -0.09375 -0.234375q0 -0.15625 0.09375 -0.234375q0.109375 -0.09375 0.34375 -0.09375l0.546875 0l0 -4.03125q0 -0.6875 -0.515625 -1.171875q-0.5 -0.484375 -1.34375 -0.484375q-0.65625 0 -1.140625 0.265625q-0.46875 0.265625 -1.34375 1.296875l0 4.125l0.734375 0q0.234375 0 0.328125 0.09375q0.109375 0.078125 0.109375 0.234375q0 0.140625 -0.109375 0.234375q-0.09375 0.09375 -0.328125 0.09375l-2.140625 0q-0.234375 0 -0.34375 -0.09375q-0.09375 -0.09375 -0.09375 -0.234375q0 -0.15625 0.09375 -0.234375q0.109375 -0.09375 0.34375 -0.09375l0.75 0l0 -5.453125l-0.5625 0q-0.234375 0 -0.34375 -0.09375q-0.09375 -0.09375 -0.09375 -0.234375q0 -0.140625 0.09375 -0.234375q0.109375 -0.09375 0.34375 -0.09375l1.21875 0zm13.9296875 1.203125l0 -1.203125l1.53125 0q0.234375 0 0.328125 0.09375q0.109375 0.09375 0.109375 0.234375q0 0.140625 -0.109375 0.234375q-0.09375 0.09375 -0.328125 0.09375l-0.875 0l0 6.5625q0 0.65625 -0.28125 1.171875q-0.1875 0.34375 -0.625 0.703125q-0.4375 0.375 -0.796875 0.53125q-0.359375 0.15625 -0.96875 0.15625l-1.859375 0q-0.234375 0 -0.34375 -0.09375q-0.09375 -0.078125 -0.09375 -0.234375q0 -0.140625 0.09375 -0.234375q0.109375 -0.09375 0.34375 -0.09375l1.890625 0q0.578125 0 1.03125 -0.296875q0.46875 -0.296875 0.78125 -0.859375q0.171875 -0.328125 0.171875 -0.84375l0 -1.96875q-1.0625 1.4375 -2.71875 1.4375q-1.359375 0 -2.34375 -1.0q-0.96875 -1.0 -0.96875 -2.421875q0 -1.40625 0.96875 -2.40625q0.984375 -1.0 2.34375 -1.0q1.65625 0 2.71875 1.4375zm0 1.96875q0 -1.15625 -0.796875 -1.953125q-0.796875 -0.796875 -1.890625 -0.796875q-1.109375 0 -1.90625 0.8125q-0.78125 0.796875 -0.78125 1.9375q0 1.15625 0.78125 1.96875q0.796875 0.796875 1.90625 0.796875q1.09375 0 1.890625 -0.796875q0.796875 -0.8125 0.796875 -1.96875zm6.0390625 -3.171875l3.5625 0q0.234375 0 0.328125 0.09375q0.109375 0.09375 0.109375 0.234375q0 0.140625 -0.109375 0.234375q-0.09375 0.09375 -0.328125 0.09375l-3.5625 0l0 4.375q0 0.5625 0.453125 0.953125q0.46875 0.375 1.34375 0.375q0.671875 0 1.4375 -0.1875q0.78125 -0.203125 1.203125 -0.453125q0.15625 -0.109375 0.265625 -0.109375q0.125 0 0.21875 0.109375q0.09375 0.09375 0.09375 0.21875q0 0.125 -0.109375 0.21875q-0.25 0.265625 -1.21875 0.578125q-0.953125 0.296875 -1.84375 0.296875q-1.140625 0 -1.828125 -0.546875q-0.671875 -0.546875 -0.671875 -1.453125l0 -4.375l-1.21875 0q-0.234375 0 -0.34375 -0.09375q-0.09375 -0.09375 -0.09375 -0.234375q0 -0.140625 0.09375 -0.234375q0.109375 -0.09375 0.34375 -0.09375l1.21875 0l0 -1.9375q0 -0.234375 0.09375 -0.328125q0.09375 -0.109375 0.234375 -0.109375q0.140625 0 0.234375 0.109375q0.09375 0.09375 0.09375 0.328125l0 1.9375zm8.7890625 -3.046875l0 4.046875q0.625 -0.6875 1.203125 -0.953125q0.578125 -0.28125 1.28125 -0.28125q0.765625 0 1.296875 0.265625q0.546875 0.265625 0.90625 0.828125q0.359375 0.5625 0.359375 1.171875l0 4.078125l0.734375 0q0.234375 0 0.328125 0.09375q0.109375 0.078125 0.109375 0.234375q0 0.140625 -0.109375 0.234375q-0.09375 0.09375 -0.328125 0.09375l-2.140625 0q-0.234375 0 -0.34375 -0.09375q-0.09375 -0.09375 -0.09375 -0.234375q0 -0.15625 0.09375 -0.234375q0.109375 -0.09375 0.34375 -0.09375l0.734375 0l0 -4.03125q0 -0.703125 -0.515625 -1.171875q-0.5 -0.484375 -1.421875 -0.484375q-0.71875 0 -1.21875 0.34375q-0.375 0.25 -1.21875 1.1875l0 4.15625l0.75 0q0.234375 0 0.328125 0.09375q0.109375 0.078125 0.109375 0.234375q0 0.140625 -0.109375 0.234375q-0.09375 0.09375 -0.328125 0.09375l-2.140625 0q-0.234375 0 -0.34375 -0.09375q-0.09375 -0.09375 -0.09375 -0.234375q0 -0.15625 0.09375 -0.234375q0.109375 -0.09375 0.34375 -0.09375l0.734375 0l0 -8.484375l-0.875 0q-0.234375 0 -0.34375 -0.09375q-0.09375 -0.09375 -0.09375 -0.25q0 -0.140625 0.09375 -0.234375q0.109375 -0.09375 0.34375 -0.09375l1.53125 0zm24.71875 4.8125l0 0.9375l-6.703125 0l0 -0.9375l6.703125 0zm16.171875 -4.9375l0 9.28125l2.25 0q0.234375 0 0.328125 0.09375q0.109375 0.078125 0.109375 0.234375q0 0.140625 -0.109375 0.234375q-0.09375 0.09375 -0.328125 0.09375l-5.15625 0q-0.234375 0 -0.34375 -0.09375q-0.09375 -0.09375 -0.09375 -0.234375q0 -0.15625 0.09375 -0.234375q0.109375 -0.09375 0.34375 -0.09375l2.25 0l0 -8.375l-2.140625 0.671875q-0.15625 0.046875 -0.21875 0.046875q-0.125 0 -0.21875 -0.09375q-0.09375 -0.109375 -0.09375 -0.234375q0 -0.125 0.078125 -0.21875q0.0625 -0.0625 0.25 -0.140625l3.0 -0.9375z" fill-rule="nonzero"/></g></svg>