<svg version="1.1" viewBox="0.0 0.0 930.3779527559055 340.56167979002623" fill="none" stroke="none" stroke-linecap="square" stroke-miterlimit="10" xmlns:xlink="http://www.w3.org/1999/xlink" xmlns="http://www.w3.org/2000/svg"><clipPath id="p.0"><path d="m0 0l930.3779 0l0 340.56168l-930.3779 0l0 -340.56168z" clip-rule="nonzero"/></clipPath><g clip-path="url(#p.0)"><path fill="#000000" fill-opacity="0.0" d="m0 0l930.3779 0l0 340.56168l-930.3779 0z" fill-rule="evenodd"/><path shape-rendering="crispEdges" fill="#6aa84f" d="m46.317585 109.67191l40.194225 0l0 41.196846l-40.194225 0l0 -41.196846z" fill-rule="nonzero"/><path shape-rendering="crispEdges" fill="#6aa84f" d="m86.51181 109.67191l40.19423 0l0 41.196846l-40.19423 0l0 -41.196846z" fill-rule="nonzero"/><path shape-rendering="crispEdges" fill="#6aa84f" d="m126.70604 109.67191l40.19423 0l0 41.196846l-40.19423 0l0 -41.196846z" fill-rule="nonzero"/><path shape-rendering="crispEdges" fill="#6aa84f" d="m166.90027 109.67191l40.194214 0l0 41.196846l-40.194214 0l0 -41.196846z" fill-rule="nonzero"/><path shape-rendering="crispEdges" fill="#cc0000" d="m207.09448 109.67191l40.19423 0l0 41.196846l-40.19423 0l0 -41.196846z" fill-rule="nonzero"/><path shape-rendering="crispEdges" fill="#6aa84f" d="m247.28871 109.67191l40.19423 0l0 41.196846l-40.19423 0l0 -41.196846z" fill-rule="nonzero"/><path shape-rendering="crispEdges" fill="#6aa84f" d="m287.48294 109.67191l40.194214 0l0 41.196846l-40.194214 0l0 -41.196846z" fill-rule="nonzero"/><path shape-rendering="crispEdges" fill="#6aa84f" d="m327.67715 109.67191l40.194244 0l0 41.196846l-40.194244 0l0 -41.196846z" fill-rule="nonzero"/><path shape-rendering="crispEdges" fill="#6aa84f" d="m367.8714 109.67191l40.194214 0l0 41.196846l-40.194214 0l0 -41.196846z" fill-rule="nonzero"/><path shape-rendering="crispEdges" fill="#cc0000" d="m408.0656 109.67191l40.194244 0l0 41.196846l-40.194244 0l0 -41.196846z" fill-rule="nonzero"/><path shape-rendering="crispEdges" fill="#6aa84f" d="m448.25986 109.67191l40.194214 0l0 41.196846l-40.194214 0l0 -41.196846z" fill-rule="nonzero"/><path shape-rendering="crispEdges" fill="#6aa84f" d="m488.45407 109.67191l40.194244 0l0 41.196846l-40.194244 0l0 -41.196846z" fill-rule="nonzero"/><path shape-rendering="crispEdges" fill="#6aa84f" d="m528.6483 109.67191l40.194214 0l0 41.196846l-40.194214 0l0 -41.196846z" fill-rule="nonzero"/><path shape-rendering="crispEdges" fill="#6aa84f" d="m568.8425 109.67191l40.194214 0l0 41.196846l-40.194214 0l0 -41.196846z" fill-rule="nonzero"/><path stroke="#434343" stroke-width="3.0" stroke-linecap="butt" d="m46.317585 108.173225l0 44.19422" fill-rule="nonzero"/><path stroke="#434343" stroke-width="3.0" stroke-linecap="butt" d="m86.51181 108.173225l0 44.19422" fill-rule="nonzero"/><path stroke="#434343" stroke-width="3.0" stroke-linecap="butt" d="m126.70604 108.173225l0 44.19422" fill-rule="nonzero"/><path stroke="#434343" stroke-width="3.0" stroke-linecap="butt" d="m166.90027 108.173225l0 44.19422" fill-rule="nonzero"/><path stroke="#434343" stroke-width="3.0" stroke-linecap="butt" d="m207.09448 108.173225l0 44.19422" fill-rule="nonzero"/><path stroke="#434343" stroke-width="3.0" stroke-linecap="butt" d="m247.28871 108.173225l0 44.19422" fill-rule="nonzero"/><path stroke="#434343" stroke-width="3.0" stroke-linecap="butt" d="m287.48294 108.173225l0 44.19422" fill-rule="nonzero"/><path stroke="#434343" stroke-width="3.0" stroke-linecap="butt" d="m327.67715 108.173225l0 44.19422" fill-rule="nonzero"/><path stroke="#434343" stroke-width="3.0" stroke-linecap="butt" d="m367.8714 108.173225l0 44.19422" fill-rule="nonzero"/><path stroke="#434343" stroke-width="3.0" stroke-linecap="butt" d="m408.0656 108.173225l0 44.19422" fill-rule="nonzero"/><path stroke="#434343" stroke-width="3.0" stroke-linecap="butt" d="m448.25986 108.173225l0 44.19422" fill-rule="nonzero"/><path stroke="#434343" stroke-width="3.0" stroke-linecap="butt" d="m488.45407 108.173225l0 44.19422" fill-rule="nonzero"/><path stroke="#434343" stroke-width="3.0" stroke-linecap="butt" d="m528.6483 108.173225l0 44.19422" fill-rule="nonzero"/><path stroke="#434343" stroke-width="3.0" stroke-linecap="butt" d="m568.8425 108.173225l0 44.19422" fill-rule="nonzero"/><path stroke="#434343" stroke-width="3.0" stroke-linecap="butt" d="m609.03674 108.173225l0 44.19422" fill-rule="nonzero"/><path stroke="#434343" stroke-width="3.0" stroke-linecap="butt" d="m44.818897 109.67191l565.71655 0" fill-rule="nonzero"/><path stroke="#434343" stroke-width="3.0" stroke-linecap="butt" d="m44.818897 150.86876l565.71655 0" fill-rule="nonzero"/><path shape-rendering="crispEdges" fill="#6aa84f" d="m699.3963 110.46982l40.194275 0l0 41.196854l-40.194275 0l0 -41.196854z" fill-rule="nonzero"/><path shape-rendering="crispEdges" fill="#6aa84f" d="m739.5906 110.46982l40.194214 0l0 41.196854l-40.194214 0l0 -41.196854z" fill-rule="nonzero"/><path shape-rendering="crispEdges" fill="#6aa84f" d="m779.7848 110.46982l40.194214 0l0 41.196854l-40.194214 0l0 -41.196854z" fill-rule="nonzero"/><path stroke="#434343" stroke-width="3.0" stroke-linecap="butt" d="m699.3963 108.97113l0 44.19423" fill-rule="nonzero"/><path stroke="#434343" stroke-width="3.0" stroke-linecap="butt" d="m739.5906 108.97113l0 44.19423" fill-rule="nonzero"/><path stroke="#434343" stroke-width="3.0" stroke-linecap="butt" d="m779.7848 108.97113l0 44.19423" fill-rule="nonzero"/><path stroke="#434343" stroke-width="3.0" stroke-linecap="butt" d="m819.979 108.97113l0 44.19423" fill-rule="nonzero"/><path stroke="#434343" stroke-width="3.0" stroke-linecap="butt" d="m697.89764 110.46982l123.58002 0" fill-rule="nonzero"/><path stroke="#434343" stroke-width="3.0" stroke-linecap="butt" d="m697.89764 151.66667l123.58002 0" fill-rule="nonzero"/><path fill="#000000" fill-opacity="0.0" d="m630.9711 132.3937l63.46454 0" fill-rule="evenodd"/><path stroke="#000000" stroke-width="4.0" stroke-linejoin="round" stroke-linecap="butt" stroke-dasharray="4.0,12.0" d="m630.9711 132.3937l63.46454 0" fill-rule="evenodd"/><path fill="#000000" fill-opacity="0.0" d="m238.49606 29.018373l178.36221 0l0 41.6063l-178.36221 0z" fill-rule="evenodd"/><path fill="#000000" d="m252.85889 53.378372l0 -11.359375l4.796875 0q0.734375 0 1.34375 0.3125q0.625 0.3125 1.078125 0.8125q0.453125 0.5 0.6875 1.140625q0.25 0.640625 0.25 1.296875q0 0.625 -0.1875 1.203125q-0.171875 0.5625 -0.5 1.015625q-0.328125 0.453125 -0.796875 0.765625q-0.46875 0.3125 -1.03125 0.421875l2.78125 4.390625l-1.265625 0l-2.671875 -4.1875l-3.359375 0l0 4.1875l-1.125 0zm1.125 -5.1875l3.703125 0q0.5 0 0.90625 -0.203125q0.40625 -0.21875 0.6875 -0.59375q0.296875 -0.375 0.453125 -0.828125q0.171875 -0.46875 0.171875 -0.984375q0 -0.5 -0.1875 -0.96875q-0.1875 -0.484375 -0.5 -0.828125q-0.3125 -0.359375 -0.734375 -0.5625q-0.421875 -0.21875 -0.890625 -0.21875l-3.609375 0l0 5.1875zm12.458008 5.34375q-0.90625 0 -1.671875 -0.34375q-0.75 -0.34375 -1.3125 -0.9375q-0.5625 -0.609375 -0.875 -1.390625q-0.3125 -0.78125 -0.3125 -1.671875q0 -0.890625 0.3125 -1.65625q0.3125 -0.78125 0.859375 -1.359375q0.5625 -0.59375 1.328125 -0.9375q0.765625 -0.34375 1.65625 -0.34375q0.921875 0 1.671875 0.34375q0.765625 0.34375 1.296875 0.9375q0.546875 0.59375 0.84375 1.359375q0.3125 0.765625 0.3125 1.640625q0 0.125 0 0.25q0 0.125 -0.015625 0.171875l-7.125 0q0.046875 0.671875 0.3125 1.25q0.265625 0.5625 0.671875 0.984375q0.421875 0.40625 0.953125 0.640625q0.53125 0.234375 1.140625 0.234375q0.40625 0 0.796875 -0.109375q0.40625 -0.109375 0.734375 -0.296875q0.34375 -0.203125 0.609375 -0.484375q0.28125 -0.28125 0.421875 -0.609375l0.953125 0.25q-0.203125 0.46875 -0.5625 0.84375q-0.34375 0.375 -0.8125 0.65625q-0.453125 0.28125 -1.015625 0.421875q-0.5625 0.15625 -1.171875 0.15625zm3.078125 -4.765625q-0.046875 -0.671875 -0.3125 -1.21875q-0.265625 -0.5625 -0.671875 -0.953125q-0.40625 -0.40625 -0.953125 -0.625q-0.53125 -0.21875 -1.140625 -0.21875q-0.609375 0 -1.15625 0.21875q-0.53125 0.21875 -0.953125 0.625q-0.40625 0.390625 -0.65625 0.953125q-0.234375 0.5625 -0.28125 1.21875l6.125 0zm4.996155 4.609375l-3.40625 -8.34375l1.125 0l2.859375 7.328125l2.890625 -7.328125l1.046875 0l-3.390625 8.34375l-1.125 0zm9.286896 0.15625q-0.90625 0 -1.65625 -0.34375q-0.75 -0.34375 -1.3125 -0.9375q-0.546875 -0.59375 -0.859375 -1.375q-0.296875 -0.78125 -0.296875 -1.640625q0 -0.890625 0.3125 -1.671875q0.3125 -0.78125 0.859375 -1.375q0.5625 -0.59375 1.3125 -0.9375q0.75 -0.359375 1.640625 -0.359375q0.890625 0 1.65625 0.359375q0.765625 0.34375 1.3125 0.9375q0.546875 0.59375 0.859375 1.375q0.3125 0.78125 0.3125 1.671875q0 0.859375 -0.3125 1.640625q-0.296875 0.78125 -0.84375 1.375q-0.546875 0.59375 -1.3125 0.9375q-0.765625 0.34375 -1.671875 0.34375zm-3.015625 -4.28125q0 0.703125 0.234375 1.3125q0.234375 0.59375 0.640625 1.046875q0.421875 0.453125 0.96875 0.71875q0.546875 0.25 1.171875 0.25q0.625 0 1.171875 -0.265625q0.5625 -0.265625 0.96875 -0.71875q0.421875 -0.453125 0.65625 -1.0625q0.25 -0.609375 0.25 -1.3125q0 -0.6875 -0.25 -1.296875q-0.234375 -0.625 -0.65625 -1.078125q-0.40625 -0.453125 -0.96875 -0.71875q-0.546875 -0.265625 -1.171875 -0.265625q-0.625 0 -1.171875 0.265625q-0.53125 0.265625 -0.953125 0.734375q-0.421875 0.453125 -0.65625 1.078125q-0.234375 0.609375 -0.234375 1.3125zm14.941895 4.125l-3.078125 -4.265625l-1.796875 1.65625l0 2.609375l-1.078125 0l0 -11.6875l1.078125 0l0 7.9375l4.6875 -4.5625l1.234375 0l-3.40625 3.40625l3.546875 4.90625l-1.1875 0zm5.688629 0.15625q-0.90625 0 -1.671875 -0.34375q-0.75 -0.34375 -1.3125 -0.9375q-0.5625 -0.609375 -0.875 -1.390625q-0.3125 -0.78125 -0.3125 -1.671875q0 -0.890625 0.3125 -1.65625q0.3125 -0.78125 0.859375 -1.359375q0.5625 -0.59375 1.328125 -0.9375q0.765625 -0.34375 1.65625 -0.34375q0.921875 0 1.671875 0.34375q0.765625 0.34375 1.296875 0.9375q0.546875 0.59375 0.84375 1.359375q0.3125 0.765625 0.3125 1.640625q0 0.125 0 0.25q0 0.125 -0.015625 0.171875l-7.125 0q0.046875 0.671875 0.3125 1.25q0.265625 0.5625 0.671875 0.984375q0.421875 0.40625 0.953125 0.640625q0.53125 0.234375 1.140625 0.234375q0.40625 0 0.796875 -0.109375q0.40625 -0.109375 0.734375 -0.296875q0.34375 -0.203125 0.609375 -0.484375q0.28125 -0.28125 0.421875 -0.609375l0.953125 0.25q-0.203125 0.46875 -0.5625 0.84375q-0.34375 0.375 -0.8125 0.65625q-0.453125 0.28125 -1.015625 0.421875q-0.5625 0.15625 -1.171875 0.15625zm3.078125 -4.765625q-0.046875 -0.671875 -0.3125 -1.21875q-0.265625 -0.5625 -0.671875 -0.953125q-0.40625 -0.40625 -0.953125 -0.625q-0.53125 -0.21875 -1.140625 -0.21875q-0.609375 0 -1.15625 0.21875q-0.53125 0.21875 -0.953125 0.625q-0.40625 0.390625 -0.65625 0.953125q-0.234375 0.5625 -0.28125 1.21875l6.125 0zm6.1419983 4.765625q-0.859375 0 -1.609375 -0.359375q-0.734375 -0.359375 -1.265625 -0.953125q-0.515625 -0.59375 -0.8125 -1.359375q-0.296875 -0.78125 -0.296875 -1.625q0 -0.890625 0.28125 -1.671875q0.296875 -0.796875 0.796875 -1.390625q0.5 -0.59375 1.1875 -0.9375q0.703125 -0.34375 1.546875 -0.34375q1.046875 0 1.859375 0.5625q0.828125 0.546875 1.28125 1.328125l0 -5.09375l1.09375 0l0 10.28125q0 0.453125 0.390625 0.453125l0 0.953125q-0.25 0.046875 -0.390625 0.046875q-0.390625 0 -0.671875 -0.25q-0.28125 -0.25 -0.28125 -0.59375l0 -0.8125q-0.5 0.8125 -1.359375 1.296875q-0.84375 0.46875 -1.75 0.46875zm0.234375 -0.953125q0.40625 0 0.859375 -0.15625q0.453125 -0.171875 0.84375 -0.453125q0.40625 -0.28125 0.6875 -0.65625q0.28125 -0.375 0.34375 -0.796875l0 -2.578125q-0.15625 -0.4375 -0.46875 -0.8125q-0.296875 -0.375 -0.6875 -0.65625q-0.390625 -0.296875 -0.84375 -0.453125q-0.4375 -0.15625 -0.875 -0.15625q-0.671875 0 -1.21875 0.296875q-0.546875 0.28125 -0.9375 0.75q-0.390625 0.46875 -0.59375 1.078125q-0.203125 0.609375 -0.203125 1.25q0 0.671875 0.234375 1.28125q0.234375 0.609375 0.65625 1.0625q0.421875 0.453125 0.984375 0.734375q0.5625 0.265625 1.21875 0.265625zm9.844543 -4.96875q0 -1.015625 0.359375 -2.03125q0.359375 -1.015625 1.046875 -1.8125q0.6875 -0.8125 1.6875 -1.3125q1.015625 -0.5 2.296875 -0.5q1.515625 0 2.59375 0.6875q1.09375 0.6875 1.59375 1.796875l-0.875 0.53125q-0.265625 -0.546875 -0.671875 -0.9375q-0.390625 -0.390625 -0.84375 -0.625q-0.4375 -0.234375 -0.921875 -0.34375q-0.46875 -0.109375 -0.9375 -0.109375q-1.03125 0 -1.8125 0.421875q-0.78125 0.421875 -1.3125 1.09375q-0.53125 0.671875 -0.8125 1.515625q-0.265625 0.828125 -0.265625 1.6875q0 0.953125 0.328125 1.8125q0.328125 0.859375 0.890625 1.53125q0.5625 0.65625 1.34375 1.0625q0.78125 0.390625 1.6875 0.390625q0.484375 0 0.984375 -0.125q0.5 -0.125 0.96875 -0.390625q0.484375 -0.265625 0.875 -0.65625q0.40625 -0.390625 0.671875 -0.953125l0.9375 0.484375q-0.28125 0.640625 -0.78125 1.140625q-0.484375 0.484375 -1.09375 0.828125q-0.609375 0.328125 -1.296875 0.5q-0.671875 0.171875 -1.328125 0.171875q-1.171875 0 -2.15625 -0.5q-0.96875 -0.515625 -1.671875 -1.34375q-0.703125 -0.828125 -1.09375 -1.875q-0.390625 -1.046875 -0.390625 -2.140625zm15.663513 -1.609375q-1.109375 0.03125 -1.921875 0.609375q-0.8125 0.578125 -1.15625 1.578125l0 5.1875l-1.078125 0l0 -8.34375l1.015625 0l0 2.0q0.46875 -0.953125 1.25 -1.5q0.78125 -0.546875 1.6875 -0.546875q0.125 0 0.203125 0.015625l0 1.0zm4.637512 7.53125q-0.90625 0 -1.671875 -0.34375q-0.75 -0.34375 -1.3125 -0.9375q-0.5625 -0.609375 -0.875 -1.390625q-0.3125 -0.78125 -0.3125 -1.671875q0 -0.890625 0.3125 -1.65625q0.3125 -0.78125 0.859375 -1.359375q0.5625 -0.59375 1.328125 -0.9375q0.765625 -0.34375 1.65625 -0.34375q0.921875 0 1.671875 0.34375q0.765625 0.34375 1.296875 0.9375q0.546875 0.59375 0.84375 1.359375q0.3125 0.765625 0.3125 1.640625q0 0.125 0 0.25q0 0.125 -0.015625 0.171875l-7.125 0q0.046875 0.671875 0.3125 1.25q0.265625 0.5625 0.671875 0.984375q0.421875 0.40625 0.953125 0.640625q0.53125 0.234375 1.140625 0.234375q0.40625 0 0.796875 -0.109375q0.40625 -0.109375 0.734375 -0.296875q0.34375 -0.203125 0.609375 -0.484375q0.28125 -0.28125 0.421875 -0.609375l0.953125 0.25q-0.203125 0.46875 -0.5625 0.84375q-0.34375 0.375 -0.8125 0.65625q-0.453125 0.28125 -1.015625 0.421875q-0.5625 0.15625 -1.171875 0.15625zm3.078125 -4.765625q-0.046875 -0.671875 -0.3125 -1.21875q-0.265625 -0.5625 -0.671875 -0.953125q-0.40625 -0.40625 -0.953125 -0.625q-0.53125 -0.21875 -1.140625 -0.21875q-0.609375 0 -1.15625 0.21875q-0.53125 0.21875 -0.953125 0.625q-0.40625 0.390625 -0.65625 0.953125q-0.234375 0.5625 -0.28125 1.21875l6.125 0zm6.142029 4.765625q-0.859375 0 -1.609375 -0.359375q-0.734375 -0.359375 -1.265625 -0.953125q-0.515625 -0.59375 -0.8125 -1.359375q-0.296875 -0.78125 -0.296875 -1.625q0 -0.890625 0.28125 -1.671875q0.296875 -0.796875 0.796875 -1.390625q0.5 -0.59375 1.1875 -0.9375q0.703125 -0.34375 1.546875 -0.34375q1.046875 0 1.859375 0.5625q0.828125 0.546875 1.28125 1.328125l0 -5.09375l1.09375 0l0 10.28125q0 0.453125 0.390625 0.453125l0 0.953125q-0.25 0.046875 -0.390625 0.046875q-0.390625 0 -0.671875 -0.25q-0.28125 -0.25 -0.28125 -0.59375l0 -0.8125q-0.5 0.8125 -1.359375 1.296875q-0.84375 0.46875 -1.75 0.46875zm0.234375 -0.953125q0.40625 0 0.859375 -0.15625q0.453125 -0.171875 0.84375 -0.453125q0.40625 -0.28125 0.6875 -0.65625q0.28125 -0.375 0.34375 -0.796875l0 -2.578125q-0.15625 -0.4375 -0.46875 -0.8125q-0.296875 -0.375 -0.6875 -0.65625q-0.390625 -0.296875 -0.84375 -0.453125q-0.4375 -0.15625 -0.875 -0.15625q-0.671875 0 -1.21875 0.296875q-0.546875 0.28125 -0.9375 0.75q-0.390625 0.46875 -0.59375 1.078125q-0.203125 0.609375 -0.203125 1.25q0 0.671875 0.234375 1.28125q0.234375 0.609375 0.65625 1.0625q0.421875 0.453125 0.984375 0.734375q0.5625 0.265625 1.21875 0.265625zm9.889526 0.953125q-0.90625 0 -1.671875 -0.34375q-0.75 -0.34375 -1.3125 -0.9375q-0.5625 -0.609375 -0.875 -1.390625q-0.3125 -0.78125 -0.3125 -1.671875q0 -0.890625 0.3125 -1.65625q0.3125 -0.78125 0.859375 -1.359375q0.5625 -0.59375 1.328125 -0.9375q0.765625 -0.34375 1.65625 -0.34375q0.921875 0 1.671875 0.34375q0.765625 0.34375 1.296875 0.9375q0.546875 0.59375 0.84375 1.359375q0.3125 0.765625 0.3125 1.640625q0 0.125 0 0.25q0 0.125 -0.015625 0.171875l-7.125 0q0.046875 0.671875 0.3125 1.25q0.265625 0.5625 0.671875 0.984375q0.421875 0.40625 0.953125 0.640625q0.53125 0.234375 1.140625 0.234375q0.40625 0 0.796875 -0.109375q0.40625 -0.109375 0.734375 -0.296875q0.34375 -0.203125 0.609375 -0.484375q0.28125 -0.28125 0.421875 -0.609375l0.953125 0.25q-0.203125 0.46875 -0.5625 0.84375q-0.34375 0.375 -0.8125 0.65625q-0.453125 0.28125 -1.015625 0.421875q-0.5625 0.15625 -1.171875 0.15625zm3.078125 -4.765625q-0.046875 -0.671875 -0.3125 -1.21875q-0.265625 -0.5625 -0.671875 -0.953125q-0.40625 -0.40625 -0.953125 -0.625q-0.53125 -0.21875 -1.140625 -0.21875q-0.609375 0 -1.15625 0.21875q-0.53125 0.21875 -0.953125 0.625q-0.40625 0.390625 -0.65625 0.953125q-0.234375 0.5625 -0.28125 1.21875l6.125 0zm9.720123 4.609375l-1.078125 0l0 -4.65625q0 -1.484375 -0.453125 -2.15625q-0.4375 -0.671875 -1.34375 -0.671875q-0.484375 0 -0.96875 0.171875q-0.46875 0.171875 -0.875 0.5q-0.40625 0.3125 -0.734375 0.765625q-0.3125 0.4375 -0.46875 0.9375l0 5.109375l-1.078125 0l0 -8.34375l0.984375 0l0 1.890625q0.515625 -0.90625 1.46875 -1.46875q0.953125 -0.5625 2.078125 -0.5625q0.6875 0 1.15625 0.265625q0.484375 0.25 0.765625 0.71875q0.296875 0.453125 0.421875 1.125q0.125 0.671875 0.125 1.5l0 4.875zm6.2480164 -0.40625q-0.09375 0.046875 -0.28125 0.140625q-0.1875 0.078125 -0.4375 0.15625q-0.234375 0.078125 -0.546875 0.140625q-0.296875 0.0625 -0.625 0.0625q-0.359375 0 -0.6875 -0.09375q-0.3125 -0.09375 -0.546875 -0.296875q-0.234375 -0.203125 -0.390625 -0.5q-0.140625 -0.3125 -0.140625 -0.703125l0 -5.96875l-1.140625 0l0 -0.875l1.140625 0l0 -2.8125l1.09375 0l0 2.8125l1.921875 0l0 0.875l-1.921875 0l0 5.65625q0.03125 0.46875 0.328125 0.6875q0.296875 0.21875 0.671875 0.21875q0.46875 0 0.8125 -0.15625q0.359375 -0.15625 0.453125 -0.21875l0.296875 0.875zm1.3600159 0.40625l0 -8.34375l1.078125 0l0 8.34375l-1.078125 0zm0 -10.078125l0 -1.609375l1.078125 0l0 1.609375l-1.078125 0zm5.5817566 10.234375q-0.59375 0 -1.09375 -0.1875q-0.5 -0.203125 -0.890625 -0.546875q-0.375 -0.359375 -0.578125 -0.828125q-0.203125 -0.484375 -0.203125 -1.03125q0 -0.53125 0.25 -1.0q0.265625 -0.46875 0.71875 -0.796875q0.46875 -0.34375 1.109375 -0.515625q0.640625 -0.1875 1.40625 -0.1875q0.640625 0 1.296875 0.109375q0.65625 0.109375 1.171875 0.3125l0 -0.75q0 -1.109375 -0.625 -1.75q-0.625 -0.640625 -1.734375 -0.640625q-0.640625 0 -1.3125 0.25q-0.671875 0.25 -1.359375 0.734375l-0.375 -0.71875q1.609375 -1.09375 3.125 -1.09375q1.578125 0 2.46875 0.890625q0.890625 0.875 0.890625 2.421875l0 3.765625q0 0.453125 0.40625 0.453125l0 0.953125q-0.265625 0.046875 -0.421875 0.046875q-0.40625 0 -0.640625 -0.203125q-0.234375 -0.21875 -0.25 -0.578125l-0.03125 -0.65625q-0.578125 0.75 -1.453125 1.15625q-0.875 0.390625 -1.875 0.390625zm0.25 -0.828125q0.859375 0 1.5625 -0.3125q0.71875 -0.328125 1.078125 -0.859375q0.15625 -0.140625 0.21875 -0.296875q0.078125 -0.171875 0.078125 -0.328125l0 -1.359375q-0.546875 -0.203125 -1.140625 -0.3125q-0.578125 -0.109375 -1.1875 -0.109375q-1.140625 0 -1.875 0.484375q-0.71875 0.46875 -0.71875 1.25q0 0.390625 0.15625 0.734375q0.15625 0.328125 0.421875 0.578125q0.265625 0.25 0.625 0.390625q0.375 0.140625 0.78125 0.140625zm6.4231567 -11.015625l1.09375 0l0 9.796875q0 0.46875 0.25 0.734375q0.25 0.265625 0.71875 0.265625q0.171875 0 0.40625 -0.046875q0.25 -0.046875 0.453125 -0.140625l0.203125 0.890625q-0.3125 0.125 -0.75 0.203125q-0.4375 0.078125 -0.765625 0.078125q-0.75 0 -1.1875 -0.421875q-0.421875 -0.421875 -0.421875 -1.1875l0 -10.171875zm7.0707397 11.84375q-0.984375 0 -1.90625 -0.3125q-0.921875 -0.328125 -1.59375 -0.9375l0.484375 -0.734375q0.703125 0.578125 1.4375 0.875q0.734375 0.28125 1.5625 0.28125q1.0 0 1.59375 -0.40625q0.609375 -0.40625 0.609375 -1.15625q0 -0.359375 -0.15625 -0.59375q-0.15625 -0.234375 -0.46875 -0.40625q-0.3125 -0.171875 -0.796875 -0.3125q-0.46875 -0.140625 -1.09375 -0.28125q-0.71875 -0.171875 -1.25 -0.34375q-0.515625 -0.1875 -0.859375 -0.40625q-0.34375 -0.21875 -0.515625 -0.546875q-0.171875 -0.328125 -0.171875 -0.828125q0 -0.625 0.25 -1.09375q0.25 -0.484375 0.671875 -0.796875q0.421875 -0.3125 0.984375 -0.46875q0.578125 -0.171875 1.21875 -0.171875q0.953125 0 1.734375 0.3125q0.796875 0.3125 1.265625 0.828125l-0.515625 0.640625q-0.46875 -0.484375 -1.140625 -0.71875q-0.65625 -0.234375 -1.375 -0.234375q-0.4375 0 -0.8125 0.09375q-0.359375 0.078125 -0.640625 0.265625q-0.28125 0.1875 -0.4375 0.484375q-0.15625 0.296875 -0.15625 0.703125q0 0.328125 0.109375 0.546875q0.109375 0.203125 0.359375 0.359375q0.265625 0.140625 0.65625 0.265625q0.390625 0.125 0.953125 0.25q0.796875 0.1875 1.40625 0.390625q0.609375 0.1875 1.015625 0.453125q0.40625 0.25 0.609375 0.625q0.21875 0.359375 0.21875 0.875q0 1.15625 -0.890625 1.828125q-0.875 0.671875 -2.359375 0.671875z" fill-rule="nonzero"/><path fill="#000000" fill-opacity="0.0" d="m238.49606 49.82152l-11.81102 0l0 55.370083" fill-rule="evenodd"/><path stroke="#434343" stroke-width="3.0" stroke-linejoin="round" stroke-linecap="butt" d="m238.49606 49.82152l-11.81102 0l0 37.370083" fill-rule="evenodd"/><path fill="#434343" stroke="#434343" stroke-width="3.0" stroke-linecap="butt" d="m221.72984 87.191605l4.9552 13.614288l4.9552 -13.614288z" fill-rule="evenodd"/><path fill="#000000" fill-opacity="0.0" d="m416.85828 49.82152l12.976379 0l0 56.283466" fill-rule="evenodd"/><path stroke="#434343" stroke-width="3.0" stroke-linejoin="round" stroke-linecap="butt" d="m416.85828 49.82152l12.976379 0l0 38.283466" fill-rule="evenodd"/><path fill="#434343" stroke="#434343" stroke-width="3.0" stroke-linecap="butt" d="m424.87946 88.10499l4.9552 13.614288l4.9552 -13.614288z" fill-rule="evenodd"/><path fill="#000000" fill-opacity="0.0" d="m819.74805 163.73491l0 0c0 4.3186493 -1.7155762 8.460403 -4.769348 11.514145c-3.053711 3.0537415 -7.1954956 4.7693176 -11.51416 4.7693176l-354.1417 0c-8.993134 0 -16.283478 7.2903595 -16.283478 16.283463l0 0c0 -8.993103 -7.290344 -16.283463 -16.283447 -16.283463l-354.14175 0c-8.993111 0 -16.283466 -7.2903595 -16.283466 -16.283463z" fill-rule="evenodd"/><path fill="#000000" fill-opacity="0.0" d="m819.74805 163.73491l0 0c0 4.3186493 -1.7155762 8.460403 -4.769348 11.514145c-3.053711 3.0537415 -7.1954956 4.7693176 -11.51416 4.7693176l-354.1417 0c-8.993134 0 -16.283478 7.2903595 -16.283478 16.283463l0 0c0 -8.993103 -7.290344 -16.283463 -16.283447 -16.283463l-354.14175 0c-8.993111 0 -16.283466 -7.2903595 -16.283466 -16.283463" fill-rule="evenodd"/><path stroke="#999999" stroke-width="2.0" stroke-linejoin="round" stroke-linecap="butt" d="m819.74805 163.73491l0 0c0 4.3186493 -1.7155762 8.460403 -4.769348 11.514145c-3.053711 3.0537415 -7.1954956 4.7693176 -11.51416 4.7693176l-354.1417 0c-8.993134 0 -16.283478 7.2903595 -16.283478 16.283463l0 0c0 -8.993103 -7.290344 -16.283463 -16.283447 -16.283463l-354.14175 0c-8.993111 0 -16.283466 -7.2903595 -16.283466 -16.283463" fill-rule="evenodd"/><path fill="#000000" fill-opacity="0.0" d="m343.85828 197.65617l178.36218 0l0 32.566925l-178.36218 0z" fill-rule="evenodd"/><path fill="#000000" d="m365.69922 218.92464l7.71875 -9.5l-7.59375 0l0 -0.984375l8.890625 0l0 0.875l-7.625 9.5l7.609375 0l0 0.984375l-9.0 0l0 -0.875zm10.985901 0.875l0 -11.359375l1.125 0l0 10.375l6.5625 0l0 0.984375l-7.6875 0zm9.328033 0l0 -11.359375l1.125 0l0 11.359375l-1.125 0zm12.514862 -2.921875q0 0.640625 -0.265625 1.171875q-0.25 0.53125 -0.6875 0.921875q-0.421875 0.390625 -1.0 0.609375q-0.578125 0.21875 -1.234375 0.21875l-5.359375 0l0 -11.359375l5.46875 0q0.59375 0 1.078125 0.265625q0.484375 0.25 0.8125 0.65625q0.34375 0.40625 0.515625 0.9375q0.1875 0.515625 0.1875 1.03125q0 0.875 -0.4375 1.59375q-0.421875 0.703125 -1.1875 1.046875q0.96875 0.296875 1.53125 1.078125q0.578125 0.78125 0.578125 1.828125zm-1.125 -0.203125q0 -0.40625 -0.140625 -0.796875q-0.140625 -0.390625 -0.40625 -0.6875q-0.265625 -0.296875 -0.625 -0.484375q-0.359375 -0.1875 -0.78125 -0.1875l-4.34375 0l0 4.3125l4.234375 0q0.4375 0 0.8125 -0.171875q0.375 -0.1875 0.65625 -0.484375q0.28125 -0.296875 0.4375 -0.6875q0.15625 -0.390625 0.15625 -0.8125zm-6.296875 -7.265625l0 4.203125l3.90625 0q0.40625 0 0.765625 -0.171875q0.359375 -0.1875 0.609375 -0.46875q0.265625 -0.296875 0.40625 -0.671875q0.15625 -0.375 0.15625 -0.78125q0 -0.4375 -0.140625 -0.8125q-0.140625 -0.390625 -0.390625 -0.671875q-0.25 -0.28125 -0.59375 -0.453125q-0.328125 -0.171875 -0.71875 -0.171875l-4.0 0zm12.861023 4.625q0 -1.015625 0.359375 -2.03125q0.359375 -1.015625 1.046875 -1.8125q0.6875 -0.8125 1.6875 -1.3125q1.015625 -0.5 2.296875 -0.5q1.515625 0 2.59375 0.6875q1.09375 0.6875 1.59375 1.796875l-0.875 0.53125q-0.265625 -0.546875 -0.671875 -0.9375q-0.390625 -0.390625 -0.84375 -0.625q-0.4375 -0.234375 -0.921875 -0.34375q-0.46875 -0.109375 -0.9375 -0.109375q-1.03125 0 -1.8125 0.421875q-0.78125 0.421875 -1.3125 1.09375q-0.53125 0.671875 -0.8125 1.515625q-0.265625 0.828125 -0.265625 1.6875q0 0.953125 0.328125 1.8125q0.328125 0.859375 0.890625 1.53125q0.5625 0.65625 1.34375 1.0625q0.78125 0.390625 1.6875 0.390625q0.484375 0 0.984375 -0.125q0.5 -0.125 0.96875 -0.390625q0.484375 -0.265625 0.875 -0.65625q0.40625 -0.390625 0.671875 -0.953125l0.9375 0.484375q-0.28125 0.640625 -0.78125 1.140625q-0.484375 0.484375 -1.09375 0.828125q-0.609375 0.328125 -1.296875 0.5q-0.671875 0.171875 -1.328125 0.171875q-1.171875 0 -2.15625 -0.5q-0.96875 -0.515625 -1.671875 -1.34375q-0.703125 -0.828125 -1.09375 -1.875q-0.390625 -1.046875 -0.390625 -2.140625zm15.054169 5.921875q-0.90625 0 -1.65625 -0.34375q-0.75 -0.34375 -1.3125 -0.9375q-0.546875 -0.59375 -0.859375 -1.375q-0.296875 -0.78125 -0.296875 -1.640625q0 -0.890625 0.3125 -1.671875q0.3125 -0.78125 0.859375 -1.375q0.5625 -0.59375 1.3125 -0.9375q0.75 -0.359375 1.640625 -0.359375q0.890625 0 1.65625 0.359375q0.765625 0.34375 1.3125 0.9375q0.546875 0.59375 0.859375 1.375q0.3125 0.78125 0.3125 1.671875q0 0.859375 -0.3125 1.640625q-0.296875 0.78125 -0.84375 1.375q-0.546875 0.59375 -1.3125 0.9375q-0.765625 0.34375 -1.671875 0.34375zm-3.015625 -4.28125q0 0.703125 0.234375 1.3125q0.234375 0.59375 0.640625 1.046875q0.421875 0.453125 0.96875 0.71875q0.546875 0.25 1.171875 0.25q0.625 0 1.171875 -0.265625q0.5625 -0.265625 0.96875 -0.71875q0.421875 -0.453125 0.65625 -1.0625q0.25 -0.609375 0.25 -1.3125q0 -0.6875 -0.25 -1.296875q-0.234375 -0.625 -0.65625 -1.078125q-0.40625 -0.453125 -0.96875 -0.71875q-0.546875 -0.265625 -1.171875 -0.265625q-0.625 0 -1.171875 0.265625q-0.53125 0.265625 -0.953125 0.734375q-0.421875 0.453125 -0.65625 1.078125q-0.234375 0.609375 -0.234375 1.3125zm21.379395 4.125l-1.078125 0l0 -4.65625q0 -1.453125 -0.46875 -2.140625q-0.46875 -0.6875 -1.375 -0.6875q-0.484375 0 -0.90625 0.171875q-0.421875 0.171875 -0.78125 0.5q-0.359375 0.3125 -0.640625 0.765625q-0.265625 0.4375 -0.40625 0.953125l0 5.09375l-1.09375 0l0 -4.65625q0 -1.484375 -0.453125 -2.15625q-0.4375 -0.671875 -1.359375 -0.671875q-0.953125 0 -1.6875 0.65625q-0.734375 0.65625 -1.0625 1.71875l0 5.109375l-1.078125 0l0 -8.34375l0.984375 0l0 1.890625q0.515625 -0.953125 1.34375 -1.484375q0.84375 -0.546875 1.84375 -0.546875q1.0625 0 1.6875 0.59375q0.640625 0.59375 0.78125 1.546875q1.171875 -2.140625 3.21875 -2.140625q0.703125 0 1.1875 0.265625q0.484375 0.25 0.78125 0.71875q0.296875 0.46875 0.421875 1.140625q0.140625 0.65625 0.140625 1.484375l0 4.875zm6.563385 0.15625q-1.046875 0 -1.859375 -0.53125q-0.8125 -0.53125 -1.3125 -1.359375l0 5.140625l-1.078125 0l0 -11.75l0.96875 0l0 1.625q0.515625 -0.78125 1.328125 -1.265625q0.8125 -0.5 1.78125 -0.5q0.859375 0 1.578125 0.359375q0.71875 0.359375 1.25 0.96875q0.53125 0.59375 0.828125 1.390625q0.296875 0.78125 0.296875 1.609375q0 0.875 -0.28125 1.65625q-0.265625 0.78125 -0.765625 1.375q-0.5 0.59375 -1.203125 0.9375q-0.703125 0.34375 -1.53125 0.34375zm-0.296875 -0.953125q0.671875 0 1.21875 -0.28125q0.546875 -0.296875 0.9375 -0.765625q0.40625 -0.46875 0.609375 -1.0625q0.203125 -0.609375 0.203125 -1.25q0 -0.671875 -0.25 -1.28125q-0.234375 -0.609375 -0.65625 -1.0625q-0.40625 -0.46875 -0.96875 -0.734375q-0.5625 -0.28125 -1.21875 -0.28125q-0.421875 0 -0.875 0.171875q-0.453125 0.15625 -0.859375 0.4375q-0.390625 0.28125 -0.671875 0.65625q-0.265625 0.375 -0.34375 0.796875l0 2.5625q0.203125 0.4375 0.5 0.828125q0.296875 0.375 0.671875 0.65625q0.375 0.28125 0.796875 0.453125q0.4375 0.15625 0.90625 0.15625zm10.075165 -6.578125q-1.109375 0.03125 -1.921875 0.609375q-0.8125 0.578125 -1.15625 1.578125l0 5.1875l-1.078125 0l0 -8.34375l1.015625 0l0 2.0q0.46875 -0.953125 1.25 -1.5q0.78125 -0.546875 1.6875 -0.546875q0.125 0 0.203125 0.015625l0 1.0zm4.637512 7.53125q-0.90625 0 -1.671875 -0.34375q-0.75 -0.34375 -1.3125 -0.9375q-0.5625 -0.609375 -0.875 -1.390625q-0.3125 -0.78125 -0.3125 -1.671875q0 -0.890625 0.3125 -1.65625q0.3125 -0.78125 0.859375 -1.359375q0.5625 -0.59375 1.328125 -0.9375q0.765625 -0.34375 1.65625 -0.34375q0.921875 0 1.671875 0.34375q0.765625 0.34375 1.296875 0.9375q0.546875 0.59375 0.84375 1.359375q0.3125 0.765625 0.3125 1.640625q0 0.125 0 0.25q0 0.125 -0.015625 0.171875l-7.125 0q0.046875 0.671875 0.3125 1.25q0.265625 0.5625 0.671875 0.984375q0.421875 0.40625 0.953125 0.640625q0.53125 0.234375 1.140625 0.234375q0.40625 0 0.796875 -0.109375q0.40625 -0.109375 0.734375 -0.296875q0.34375 -0.203125 0.609375 -0.484375q0.28125 -0.28125 0.421875 -0.609375l0.953125 0.25q-0.203125 0.46875 -0.5625 0.84375q-0.34375 0.375 -0.8125 0.65625q-0.453125 0.28125 -1.015625 0.421875q-0.5625 0.15625 -1.171875 0.15625zm3.078125 -4.765625q-0.046875 -0.671875 -0.3125 -1.21875q-0.265625 -0.5625 -0.671875 -0.953125q-0.40625 -0.40625 -0.953125 -0.625q-0.53125 -0.21875 -1.140625 -0.21875q-0.609375 0 -1.15625 0.21875q-0.53125 0.21875 -0.953125 0.625q-0.40625 0.390625 -0.65625 0.953125q-0.234375 0.5625 -0.28125 1.21875l6.125 0zm5.4857483 4.765625q-0.984375 0 -1.90625 -0.3125q-0.921875 -0.328125 -1.59375 -0.9375l0.484375 -0.734375q0.703125 0.578125 1.4375 0.875q0.734375 0.28125 1.5625 0.28125q1.0 0 1.59375 -0.40625q0.609375 -0.40625 0.609375 -1.15625q0 -0.359375 -0.15625 -0.59375q-0.15625 -0.234375 -0.46875 -0.40625q-0.3125 -0.171875 -0.796875 -0.3125q-0.46875 -0.140625 -1.09375 -0.28125q-0.71875 -0.171875 -1.25 -0.34375q-0.515625 -0.1875 -0.859375 -0.40625q-0.34375 -0.21875 -0.515625 -0.546875q-0.171875 -0.328125 -0.171875 -0.828125q0 -0.625 0.25 -1.09375q0.25 -0.484375 0.671875 -0.796875q0.421875 -0.3125 0.984375 -0.46875q0.578125 -0.171875 1.21875 -0.171875q0.953125 0 1.734375 0.3125q0.796875 0.3125 1.265625 0.828125l-0.515625 0.640625q-0.46875 -0.484375 -1.140625 -0.71875q-0.65625 -0.234375 -1.375 -0.234375q-0.4375 0 -0.8125 0.09375q-0.359375 0.078125 -0.640625 0.265625q-0.28125 0.1875 -0.4375 0.484375q-0.15625 0.296875 -0.15625 0.703125q0 0.328125 0.109375 0.546875q0.109375 0.203125 0.359375 0.359375q0.265625 0.140625 0.65625 0.265625q0.390625 0.125 0.953125 0.25q0.796875 0.1875 1.40625 0.390625q0.609375 0.1875 1.015625 0.453125q0.40625 0.25 0.609375 0.625q0.21875 0.359375 0.21875 0.875q0 1.15625 -0.890625 1.828125q-0.875 0.671875 -2.359375 0.671875zm7.7920227 0q-0.984375 0 -1.90625 -0.3125q-0.921875 -0.328125 -1.59375 -0.9375l0.484375 -0.734375q0.703125 0.578125 1.4375 0.875q0.734375 0.28125 1.5625 0.28125q1.0 0 1.59375 -0.40625q0.609375 -0.40625 0.609375 -1.15625q0 -0.359375 -0.15625 -0.59375q-0.15625 -0.234375 -0.46875 -0.40625q-0.3125 -0.171875 -0.796875 -0.3125q-0.46875 -0.140625 -1.09375 -0.28125q-0.71875 -0.171875 -1.25 -0.34375q-0.515625 -0.1875 -0.859375 -0.40625q-0.34375 -0.21875 -0.515625 -0.546875q-0.171875 -0.328125 -0.171875 -0.828125q0 -0.625 0.25 -1.09375q0.25 -0.484375 0.671875 -0.796875q0.421875 -0.3125 0.984375 -0.46875q0.578125 -0.171875 1.21875 -0.171875q0.953125 0 1.734375 0.3125q0.796875 0.3125 1.265625 0.828125l-0.515625 0.640625q-0.46875 -0.484375 -1.140625 -0.71875q-0.65625 -0.234375 -1.375 -0.234375q-0.4375 0 -0.8125 0.09375q-0.359375 0.078125 -0.640625 0.265625q-0.28125 0.1875 -0.4375 0.484375q-0.15625 0.296875 -0.15625 0.703125q0 0.328125 0.109375 0.546875q0.109375 0.203125 0.359375 0.359375q0.265625 0.140625 0.65625 0.265625q0.390625 0.125 0.953125 0.25q0.796875 0.1875 1.40625 0.390625q0.609375 0.1875 1.015625 0.453125q0.40625 0.25 0.609375 0.625q0.21875 0.359375 0.21875 0.875q0 1.15625 -0.890625 1.828125q-0.875 0.671875 -2.359375 0.671875zm5.0263977 -0.15625l0 -8.34375l1.078125 0l0 8.34375l-1.078125 0zm0 -10.078125l0 -1.609375l1.078125 0l0 1.609375l-1.078125 0zm7.0348816 10.234375q-0.90625 0 -1.65625 -0.34375q-0.75 -0.34375 -1.3125 -0.9375q-0.546875 -0.59375 -0.859375 -1.375q-0.296875 -0.78125 -0.296875 -1.640625q0 -0.890625 0.3125 -1.671875q0.3125 -0.78125 0.859375 -1.375q0.5625 -0.59375 1.3125 -0.9375q0.75 -0.359375 1.640625 -0.359375q0.890625 0 1.65625 0.359375q0.765625 0.34375 1.3125 0.9375q0.546875 0.59375 0.859375 1.375q0.3125 0.78125 0.3125 1.671875q0 0.859375 -0.3125 1.640625q-0.296875 0.78125 -0.84375 1.375q-0.546875 0.59375 -1.3125 0.9375q-0.765625 0.34375 -1.671875 0.34375zm-3.015625 -4.28125q0 0.703125 0.234375 1.3125q0.234375 0.59375 0.640625 1.046875q0.421875 0.453125 0.96875 0.71875q0.546875 0.25 1.171875 0.25q0.625 0 1.171875 -0.265625q0.5625 -0.265625 0.96875 -0.71875q0.421875 -0.453125 0.65625 -1.0625q0.25 -0.609375 0.25 -1.3125q0 -0.6875 -0.25 -1.296875q-0.234375 -0.625 -0.65625 -1.078125q-0.40625 -0.453125 -0.96875 -0.71875q-0.546875 -0.265625 -1.171875 -0.265625q-0.625 0 -1.171875 0.265625q-0.53125 0.265625 -0.953125 0.734375q-0.421875 0.453125 -0.65625 1.078125q-0.234375 0.609375 -0.234375 1.3125zm15.98877 4.125l-1.078125 0l0 -4.65625q0 -1.484375 -0.453125 -2.15625q-0.4375 -0.671875 -1.34375 -0.671875q-0.484375 0 -0.96875 0.171875q-0.46875 0.171875 -0.875 0.5q-0.40625 0.3125 -0.734375 0.765625q-0.3125 0.4375 -0.46875 0.9375l0 5.109375l-1.078125 0l0 -8.34375l0.984375 0l0 1.890625q0.515625 -0.90625 1.46875 -1.46875q0.953125 -0.5625 2.078125 -0.5625q0.6875 0 1.15625 0.265625q0.484375 0.25 0.765625 0.71875q0.296875 0.453125 0.421875 1.125q0.125 0.671875 0.125 1.5l0 4.875z" fill-rule="nonzero"/><path fill="#000000" fill-opacity="0.0" d="m409.87402 247.64305l0 0c0 -5.2619324 2.6559448 -9.527573 5.9322205 -9.527573l12.623718 0c3.2762756 0 5.932251 -4.265625 5.932251 -9.527557l0 0c0 5.2619324 2.6559448 9.527557 5.9322205 9.527557l12.623718 0c3.2762756 0 5.932251 4.2656403 5.932251 9.527573z" fill-rule="evenodd"/><path fill="#000000" fill-opacity="0.0" d="m409.87402 247.64305l0 0c0 -5.2619324 2.6559448 -9.527573 5.9322205 -9.527573l12.623718 0c3.2762756 0 5.932251 -4.265625 5.932251 -9.527557l0 0c0 5.2619324 2.6559448 9.527557 5.9322205 9.527557l12.623718 0c3.2762756 0 5.932251 4.2656403 5.932251 9.527573" fill-rule="evenodd"/><path stroke="#999999" stroke-width="2.0" stroke-linejoin="round" stroke-linecap="butt" d="m409.87402 247.64305l0 0c0 -5.2619324 2.6559448 -9.527573 5.9322205 -9.527573l12.623718 0c3.2762756 0 5.932251 -4.265625 5.932251 -9.527557l0 0c0 5.2619324 2.6559448 9.527557 5.9322205 9.527557l12.623718 0c3.2762756 0 5.932251 4.2656403 5.932251 9.527573" fill-rule="evenodd"/><path fill="#45818e" d="m421.07864 257.98712l0 0c0 1.9395142 6.2891846 3.5118103 14.047241 3.5118103c7.758087 0 14.047241 -1.5722961 14.047241 -3.5118103l0 32.283447c0 1.9395142 -6.289154 3.5118103 -14.047241 3.5118103c-7.7580566 0 -14.047241 -1.5722961 -14.047241 -3.5118103z" fill-rule="evenodd"/><path fill="#8fb3bb" d="m421.07864 257.98712l0 0c0 -1.9395447 6.2891846 -3.5118256 14.047241 -3.5118256c7.758087 0 14.047241 1.5722809 14.047241 3.5118256l0 0c0 1.9395142 -6.289154 3.5118103 -14.047241 3.5118103c-7.7580566 0 -14.047241 -1.5722961 -14.047241 -3.5118103z" fill-rule="evenodd"/><path fill="#000000" fill-opacity="0.0" d="m449.17313 257.98712l0 0c0 1.9395142 -6.289154 3.5118103 -14.047241 3.5118103c-7.7580566 0 -14.047241 -1.5722961 -14.047241 -3.5118103l0 0c0 -1.9395447 6.2891846 -3.5118256 14.047241 -3.5118256c7.758087 0 14.047241 1.5722809 14.047241 3.5118256l0 32.283447c0 1.9395142 -6.289154 3.5118103 -14.047241 3.5118103c-7.7580566 0 -14.047241 -1.5722961 -14.047241 -3.5118103l0 -32.283447" fill-rule="evenodd"/><path stroke="#666666" stroke-width="1.0" stroke-linejoin="round" stroke-linecap="butt" d="m449.17313 257.98712l0 0c0 1.9395142 -6.289154 3.5118103 -14.047241 3.5118103c-7.7580566 0 -14.047241 -1.5722961 -14.047241 -3.5118103l0 0c0 -1.9395447 6.2891846 -3.5118256 14.047241 -3.5118256c7.758087 0 14.047241 1.5722809 14.047241 3.5118256l0 32.283447c0 1.9395142 -6.289154 3.5118103 -14.047241 3.5118103c-7.7580566 0 -14.047241 -1.5722961 -14.047241 -3.5118103l0 -32.283447" fill-rule="evenodd"/><path fill="#000000" fill-opacity="0.0" d="m824.3018 114.18635l77.22839 0l0 32.566933l-77.22839 0z" fill-rule="evenodd"/><path fill="#666666" d="m842.5332 123.46294l0 13.140625l2.4375 0q0.859375 0 1.21875 0.34375q0.375 0.328125 0.375 0.859375q0 0.53125 -0.375 0.875q-0.359375 0.328125 -1.21875 0.328125l-7.265625 0q-0.859375 0 -1.234375 -0.328125q-0.359375 -0.34375 -0.359375 -0.875q0 -0.53125 0.359375 -0.859375q0.375 -0.34375 1.234375 -0.34375l2.4375 0l0 -10.015625l-2.15625 0.5625q-0.515625 0.140625 -0.765625 0.140625q-0.453125 0 -0.796875 -0.359375q-0.328125 -0.375 -0.328125 -0.890625q0 -0.484375 0.234375 -0.75q0.25 -0.28125 1.046875 -0.5l5.15625 -1.328125zm10.933594 7.34375q0.859375 -0.734375 1.640625 -1.0625q0.796875 -0.328125 1.6875 -0.328125q1.875 0 3.296875 1.5q1.421875 1.5 1.421875 3.75q0 2.109375 -1.328125 3.40625q-1.3125 1.296875 -3.578125 1.296875q-1.875 0 -3.09375 -0.875q-1.21875 -0.890625 -1.84375 -2.71875q-0.625 -1.828125 -0.625 -4.078125q0 -2.703125 1.234375 -4.484375q1.234375 -1.78125 2.890625 -2.765625q1.671875 -0.984375 3.515625 -0.984375q1.46875 0 2.28125 0.5625q0.515625 0.390625 0.515625 0.984375q0 0.53125 -0.359375 0.890625q-0.34375 0.359375 -0.828125 0.359375q-0.28125 0 -0.8125 -0.28125q-0.3125 -0.171875 -0.609375 -0.171875q-1.140625 0 -2.375 0.65625q-1.234375 0.65625 -2.140625 2.0q-0.609375 0.9375 -0.890625 2.34375zm0.34375 3.71875q0.375 1.40625 1.015625 1.921875q0.640625 0.515625 1.828125 0.515625q1.171875 0 1.8125 -0.625q0.640625 -0.625 0.640625 -1.6875q0 -1.21875 -0.734375 -2.03125q-0.734375 -0.8125 -1.640625 -0.8125q-0.734375 0 -1.5625 0.71875q-0.8125 0.71875 -1.359375 2.0zm13.808594 -0.578125l0 2.65625l0.859375 0q0.875 0 1.234375 0.34375q0.375 0.328125 0.375 0.859375q0 0.53125 -0.375 0.875q-0.359375 0.328125 -1.234375 0.328125l-3.640625 0q-0.859375 0 -1.234375 -0.328125q-0.375 -0.34375 -0.375 -0.875q0 -0.53125 0.375 -0.859375q0.375 -0.34375 1.234375 -0.34375l0.375 0l0 -9.390625l-0.375 0q-0.859375 0 -1.234375 -0.328125q-0.375 -0.34375 -0.375 -0.890625q0 -0.53125 0.375 -0.859375q0.375 -0.34375 1.234375 -0.34375l3.640625 0.015625q0.875 0 1.234375 0.328125q0.375 0.328125 0.375 0.859375q0 0.546875 -0.375 0.890625q-0.359375 0.328125 -1.234375 0.328125l-0.859375 0l0 3.5625l4.265625 -3.671875q-0.375 -0.265625 -0.515625 -0.5q-0.140625 -0.234375 -0.140625 -0.578125q0 -0.546875 0.359375 -0.890625q0.375 -0.34375 1.25 -0.34375l2.4375 0.015625q0.875 0 1.234375 0.328125q0.375 0.328125 0.375 0.859375q0 0.53125 -0.375 0.875q-0.359375 0.34375 -1.140625 0.34375l-4.3125 3.765625q1.203125 0.6875 2.265625 2.109375q1.0625 1.421875 1.875 3.515625l0.640625 0q0.859375 0 1.21875 0.34375q0.375 0.328125 0.375 0.859375q0 0.53125 -0.359375 0.875q-0.359375 0.328125 -1.234375 0.328125l-2.171875 0q-0.75 -1.796875 -1.640625 -3.421875q-0.734375 -1.328125 -1.390625 -1.921875q-0.640625 -0.609375 -1.546875 -0.96875l-1.46875 1.25zm11.996094 2.65625l0 -9.390625l-0.375 0q-0.859375 0 -1.234375 -0.328125q-0.375 -0.34375 -0.375 -0.890625q0 -0.53125 0.375 -0.859375q0.375 -0.34375 1.234375 -0.34375l6.03125 0q2.15625 0 3.46875 1.203125q1.3125 1.203125 1.3125 2.859375q0 0.78125 -0.3125 1.46875q-0.296875 0.6875 -0.921875 1.28125q1.140625 0.671875 1.703125 1.59375q0.5625 0.90625 0.5625 2.046875q0 0.921875 -0.40625 1.703125q-0.296875 0.59375 -0.75 0.953125q-0.59375 0.484375 -1.46875 0.796875q-0.859375 0.3125 -2.15625 0.3125l-7.0625 0q-0.859375 0 -1.234375 -0.328125q-0.375 -0.34375 -0.375 -0.875q0 -0.53125 0.375 -0.859375q0.375 -0.34375 1.234375 -0.34375l0.375 0zm2.40625 -5.90625l2.640625 0q1.40625 0 2.34375 -0.71875q0.640625 -0.46875 0.640625 -1.1875q0 -0.640625 -0.609375 -1.109375q-0.59375 -0.46875 -1.890625 -0.46875l-3.125 0l0 3.484375zm0 5.90625l4.140625 0q1.46875 0 2.0625 -0.4375q0.46875 -0.328125 0.46875 -0.9375q0 -0.71875 -0.90625 -1.421875q-0.90625 -0.703125 -2.59375 -0.703125l-3.171875 0l0 3.5z" fill-rule="nonzero"/><path fill="#000000" fill-opacity="0.0" d="m379.3662 292.61417l113.38583 0l0 32.566925l-113.38583 0z" fill-rule="evenodd"/><path fill="#666666" d="m398.47708 304.38263l0 8.765625l1.609375 0q0.578125 0 0.828125 0.234375q0.25 0.21875 0.25 0.578125q0 0.34375 -0.25 0.578125q-0.25 0.21875 -0.828125 0.21875l-4.828125 0q-0.578125 0 -0.828125 -0.21875q-0.25 -0.234375 -0.25 -0.59375q0 -0.34375 0.25 -0.5625q0.25 -0.234375 0.828125 -0.234375l1.609375 0l0 -6.671875l-1.421875 0.375q-0.34375 0.09375 -0.515625 0.09375q-0.3125 0 -0.53125 -0.234375q-0.21875 -0.25 -0.21875 -0.609375q0 -0.3125 0.15625 -0.5q0.171875 -0.1875 0.6875 -0.328125l3.453125 -0.890625zm11.0703125 5.015625q0.703125 0.484375 1.046875 1.125q0.359375 0.640625 0.359375 1.421875q0 0.859375 -0.46875 1.578125q-0.453125 0.71875 -1.34375 1.09375q-0.875 0.375 -2.3125 0.375q-1.859375 0 -2.796875 -0.578125q-0.515625 -0.328125 -0.515625 -0.78125q0 -0.34375 0.21875 -0.578125q0.234375 -0.25 0.5625 -0.25q0.234375 0 0.46875 0.15625q0.34375 0.234375 0.65625 0.3125q0.46875 0.109375 1.28125 0.109375q1.40625 0 2.03125 -0.359375q0.625 -0.359375 0.625 -1.03125q0 -0.484375 -0.375 -0.9375q-0.359375 -0.46875 -0.96875 -0.71875q-0.34375 -0.140625 -1.1875 -0.1875q-0.390625 -0.03125 -0.609375 -0.25q-0.21875 -0.21875 -0.21875 -0.546875q0 -0.34375 0.234375 -0.578125q0.234375 -0.234375 0.59375 -0.234375q0.796875 0 0.859375 -0.015625q0.3125 -0.03125 0.625 -0.203125q0.3125 -0.171875 0.5 -0.46875q0.1875 -0.296875 0.1875 -0.625q0 -0.5 -0.453125 -0.875q-0.4375 -0.375 -1.34375 -0.375q-1.15625 0 -1.765625 0.671875q-0.171875 0.203125 -0.28125 0.25q-0.171875 0.09375 -0.375 0.09375q-0.328125 0 -0.5625 -0.234375q-0.234375 -0.234375 -0.234375 -0.578125q0 -0.546875 0.71875 -1.046875q1.046875 -0.75 2.625 -0.75q1.484375 0 2.375 0.84375q0.90625 0.84375 0.90625 2.03125q0 0.625 -0.265625 1.15625q-0.265625 0.53125 -0.796875 0.984375zm5.9609375 -3.15625l0 1.90625q0.890625 -0.28125 1.625 -0.28125q1.46875 0 2.4375 1.015625q0.984375 1.0 0.984375 2.59375q0 1.640625 -0.984375 2.578125q-0.984375 0.9375 -3.03125 0.9375q-1.796875 0 -2.84375 -0.6875q-0.609375 -0.390625 -0.609375 -0.890625q0 -0.328125 0.234375 -0.5625q0.25 -0.234375 0.578125 -0.234375q0.265625 0 0.578125 0.265625q0.328125 0.25 0.6875 0.359375q0.5 0.140625 1.28125 0.140625q1.453125 0 1.984375 -0.453125q0.53125 -0.46875 0.53125 -1.4375q0 -0.9375 -0.515625 -1.46875q-0.515625 -0.546875 -1.3125 -0.546875q-0.875 0 -1.984375 0.5625q-0.25 0.125 -0.4375 0.125q-0.34375 0 -0.578125 -0.25q-0.21875 -0.25 -0.21875 -0.640625l0 -4.625l4.890625 0q0.578125 0 0.828125 0.21875q0.25 0.21875 0.25 0.578125q0 0.359375 -0.25 0.578125q-0.25 0.21875 -0.828125 0.21875l-3.296875 0zm18.53125 -1.625l0 3.59375q0.59375 -0.375 1.1875 -0.5625q0.609375 -0.203125 1.234375 -0.203125q1.65625 0 2.8125 1.15625q1.15625 1.140625 1.15625 2.765625q0 1.5625 -1.109375 2.609375q-1.09375 1.046875 -2.890625 1.046875q-0.640625 0 -1.234375 -0.171875q-0.59375 -0.171875 -1.15625 -0.484375l0 0.390625l-1.875 0q-0.578125 0 -0.828125 -0.21875q-0.25 -0.234375 -0.25 -0.59375q0 -0.34375 0.25 -0.5625q0.265625 -0.234375 0.828125 -0.234375l0.28125 0l0 -6.921875l-0.28125 0q-0.578125 0 -0.828125 -0.21875q-0.25 -0.234375 -0.25 -0.59375q0 -0.34375 0.25 -0.5625q0.25 -0.234375 0.828125 -0.234375l1.875 0zm4.796875 6.796875q0 -0.984375 -0.703125 -1.671875q-0.6875 -0.6875 -1.703125 -0.6875q-1.0 0 -1.703125 0.6875q-0.6875 0.6875 -0.6875 1.65625q0 0.875 0.625 1.453125q0.625 0.5625 1.765625 0.5625q1.140625 0 1.765625 -0.5625q0.640625 -0.578125 0.640625 -1.4375zm5.929718 3.28125l-2.7656555 -5.4375q-0.390625 -0.046875 -0.59375 -0.265625q-0.203125 -0.21875 -0.203125 -0.53125q0 -0.359375 0.234375 -0.578125q0.25 -0.21875 0.828125 -0.21875l1.4687805 0q0.578125 0 0.8125 0.21875q0.25 0.21875 0.25 0.578125q0 0.359375 -0.25 0.578125q-0.234375 0.21875 -0.765625 0.21875l1.890625 3.6875l1.875 -3.6875q-0.515625 0 -0.765625 -0.21875q-0.25 -0.21875 -0.25 -0.578125q0 -0.359375 0.25 -0.578125q0.25 -0.21875 0.828125 -0.21875l1.5 0q0.578125 0 0.8125 0.21875q0.25 0.21875 0.25 0.578125q0 0.328125 -0.21875 0.546875q-0.203125 0.21875 -0.609375 0.25l-3.671875 7.25q0.59375 0 0.78125 0.109375q0.375 0.25 0.375 0.6875q0 0.359375 -0.25 0.578125q-0.234375 0.21875 -0.8125 0.21875l-3.5000305 0q-0.578125 0 -0.828125 -0.21875q-0.234375 -0.21875 -0.234375 -0.578125q0 -0.359375 0.234375 -0.578125q0.25 -0.21875 0.828125 -0.21875l1.5937805 0l0.90625 -1.8125zm10.1015625 -5.4375l0 3.21875q0 0.515625 0.21875 0.671875q0.328125 0.265625 1.171875 0.265625q1.21875 0 2.265625 -0.53125q0.390625 -0.203125 0.625 -0.203125q0.3125 0 0.53125 0.234375q0.234375 0.234375 0.234375 0.578125q0 0.3125 -0.25 0.53125q-0.375 0.375 -1.515625 0.6875q-1.125 0.3125 -1.890625 0.3125q-1.5 0 -2.25 -0.640625q-0.734375 -0.65625 -0.734375 -1.59375l0 -3.53125l-0.578125 0q-0.578125 0 -0.828125 -0.21875q-0.25 -0.21875 -0.25 -0.578125q0 -0.359375 0.25 -0.578125q0.25 -0.21875 0.828125 -0.21875l0.578125 0l0 -1.453125q0 -0.578125 0.21875 -0.8125q0.21875 -0.25 0.578125 -0.25q0.359375 0 0.578125 0.25q0.21875 0.234375 0.21875 0.8125l0 1.453125l2.96875 0q0.578125 0 0.8125 0.21875q0.25 0.21875 0.25 0.578125q0 0.359375 -0.25 0.578125q-0.234375 0.21875 -0.8125 0.21875l-2.96875 0zm14.0234375 2.765625l-6.578125 0q0.25 0.625 0.890625 1.015625q0.640625 0.375 1.71875 0.375q0.890625 0 2.375 -0.390625q0.609375 -0.15625 0.84375 -0.15625q0.3125 0 0.53125 0.234375q0.21875 0.21875 0.21875 0.5625q0 0.3125 -0.234375 0.53125q-0.3125 0.296875 -1.53125 0.5625q-1.203125 0.265625 -2.3125 0.265625q-1.921875 0 -3.078125 -1.09375q-1.15625 -1.09375 -1.15625 -2.671875q0 -1.6875 1.25 -2.75q1.25 -1.0625 2.875 -1.0625q0.96875 0 1.78125 0.34375q0.828125 0.34375 1.21875 0.75q0.5625 0.578125 0.9375 1.421875q0.25 0.59375 0.25 1.375l0 0.6875zm-1.78125 -1.609375q-0.359375 -0.6875 -0.953125 -1.015625q-0.59375 -0.34375 -1.421875 -0.34375q-0.8125 0 -1.40625 0.34375q-0.59375 0.328125 -0.96875 1.015625l4.75 0zm9.0859375 -0.875q-0.390625 -0.25 -0.828125 -0.359375q-0.421875 -0.125 -0.890625 -0.125q-0.921875 0 -1.46875 0.296875q-0.25 0.140625 -0.25 0.296875q0 0.171875 0.328125 0.34375q0.25 0.125 1.125 0.25q1.59375 0.21875 2.21875 0.4375q0.8125 0.28125 1.25 0.859375q0.453125 0.5625 0.453125 1.203125q0 0.859375 -0.75 1.4375q-1.09375 0.84375 -2.828125 0.84375q-0.6875 0 -1.28125 -0.125q-0.59375 -0.125 -1.078125 -0.359375q-0.125 0.09375 -0.265625 0.15625q-0.125 0.046875 -0.265625 0.046875q-0.375 0 -0.59375 -0.234375q-0.21875 -0.25 -0.21875 -0.828125l0 -0.546875q0 -0.578125 0.21875 -0.8125q0.21875 -0.25 0.578125 -0.25q0.296875 0 0.484375 0.15625q0.203125 0.15625 0.3125 0.546875q0.359375 0.3125 0.875 0.484375q0.515625 0.15625 1.1875 0.15625q1.109375 0 1.71875 -0.34375q0.28125 -0.171875 0.28125 -0.359375q0 -0.3125 -0.40625 -0.515625q-0.421875 -0.203125 -1.71875 -0.34375q-1.921875 -0.203125 -2.578125 -0.78125q-0.640625 -0.578125 -0.640625 -1.40625q0 -0.859375 0.71875 -1.4375q0.984375 -0.78125 2.578125 -0.78125q0.5625 0 1.0625 0.109375q0.515625 0.109375 0.984375 0.328125q0.15625 -0.109375 0.28125 -0.15625q0.125 -0.0625 0.234375 -0.0625q0.328125 0 0.546875 0.25q0.21875 0.234375 0.21875 0.8125l0 0.390625q0 0.53125 -0.125 0.71875q-0.25 0.359375 -0.671875 0.359375q-0.296875 0 -0.515625 -0.171875q-0.21875 -0.1875 -0.28125 -0.484375z" fill-rule="nonzero"/></g></svg>